<?xml version="1.0" encoding="UTF-8"?>
<svg width="55px" height="55px" viewBox="0 0 55 55" version="1.1" xmlns="http://www.w3.org/2000/svg" xmlns:xlink="http://www.w3.org/1999/xlink">
    <!-- Generator: Sketch 51 (57462) - http://www.bohemiancoding.com/sketch -->
    <title>icons/contact/email</title>
    <desc>Created with Sketch.</desc>
    <defs>
        <polygon id="path-1" points="0.991400374 0.5 17.6208504 0.5 17.6208504 8.6523 0.991400374 8.6523"></polygon>
    </defs>
    <g id="icons/contact/email" stroke="none" stroke-width="1" fill="none" fill-rule="evenodd">
        <path d="M25.0987,23.9475 C25.0987,23.9925 25.1017,24.0365 25.1087,24.0805 L25.0987,23.9475 Z M26.0877,24.9875 C26.1347,24.9935 26.1837,24.9965 26.2327,24.9965 L26.0877,24.9875 Z M26.3157,22.4995 C26.9867,22.4995 27.5957,23.1085 27.5957,23.8585 L27.7267,25.6825 L31.2857,17.9725 L23.1947,22.3015 L26.3117,22.4995 L26.3157,22.4995 Z M26.8697,31.5245 C26.6967,31.5245 26.5237,31.4915 26.3587,31.4225 L25.5887,31.1015 L25.5477,30.1895 L25.1697,24.9285 L17.8607,24.4675 L17.8607,23.4545 C17.7247,22.9375 17.9067,22.5605 18.0367,22.3725 L18.4097,21.8325 L18.7847,21.8245 L33.3797,14.0175 L33.6937,14.0175 C34.2617,14.0175 34.7867,14.3645 34.9997,14.8805 C35.1697,15.2905 35.1247,15.7505 34.8927,16.1235 L28.0637,30.9185 L27.9037,31.0775 C27.6087,31.3705 27.2387,31.5245 26.8697,31.5245 Z" id="Fill-1" fill="#097C86"></path>
        <path d="M53.25,54.5002 L1.25,54.5002 C0.56,54.5002 0,53.9402 0,53.2502 L0,21.4842 C0,20.7942 0.56,20.2342 1.25,20.2342 C1.94,20.2342 2.5,20.7942 2.5,21.4842 L2.5,52.0002 L52,52.0002 L52,21.4842 C52,20.7942 52.56,20.2342 53.25,20.2342 C53.94,20.2342 54.5,20.7942 54.5,21.4842 L54.5,53.2502 C54.5,53.9402 53.94,54.5002 53.25,54.5002" id="Fill-3" fill="#002F43"></path>
        <path d="M1.251,54.5002 C0.88,54.5002 0.512,54.3352 0.266,54.0212 C-0.16,53.4772 -0.063,52.6902 0.48,52.2662 L20.714,36.4392 C21.258,36.0162 22.045,36.1102 22.469,36.6532 C22.895,37.1972 22.798,37.9832 22.255,38.4082 L2.021,54.2342 C1.792,54.4132 1.521,54.5002 1.251,54.5002" id="Fill-5" fill="#002F43"></path>
        <path d="M53.2491,54.5002 C52.9791,54.5002 52.7091,54.4132 52.4791,54.2342 L32.2441,38.4082 C31.7011,37.9832 31.6041,37.1972 32.0301,36.6532 C32.4561,36.1102 33.2401,36.0162 33.7851,36.4392 L54.0201,52.2662 C54.5631,52.6902 54.6601,53.4772 54.2341,54.0212 C53.9881,54.3352 53.6201,54.5002 53.2491,54.5002" id="Fill-7" fill="#002F43"></path>
        <path d="M53.2491,22.8479 C52.9801,22.8479 52.7101,22.7619 52.4811,22.5829 L45.8121,17.3829 C45.2671,16.9589 45.1701,16.1729 45.5951,15.6289 C46.0191,15.0849 46.8041,14.9869 47.3491,15.4119 L54.0191,20.6129 C54.5631,21.0359 54.6601,21.8229 54.2351,22.3669 C53.9891,22.6829 53.6211,22.8479 53.2491,22.8479" id="Fill-9" fill="#002F43"></path>
        <g id="Group-13" transform="translate(18.000000, -0.499800)">
            <mask id="mask-2" fill="white">
                <use xlink:href="#path-1"></use>
            </mask>
            <g id="Clip-12"></g>
            <path d="M16.3702,8.6523 C16.0982,8.6523 15.8242,8.5633 15.5942,8.3813 L9.2482,3.3443 L3.0162,8.2693 C2.4762,8.6993 1.6882,8.6053 1.2612,8.0643 C0.8322,7.5223 0.9252,6.7363 1.4662,6.3083 L8.4742,0.7693 C8.9312,0.4103 9.5732,0.4093 10.0272,0.7703 L17.1482,6.4233 C17.6882,6.8523 17.7792,7.6383 17.3502,8.1793 C17.1032,8.4903 16.7382,8.6523 16.3702,8.6523" id="Fill-11" fill="#002F43" mask="url(#mask-2)"></path>
        </g>
        <path d="M1.251,22.8479 C0.874,22.8479 0.502,22.6789 0.256,22.3559 C-0.162,21.8069 -0.057,21.0229 0.492,20.6039 L7.161,15.5169 C7.71,15.0969 8.494,15.2019 8.913,15.7529 C9.331,16.3019 9.226,17.0859 8.677,17.5049 L2.008,22.5919 C1.781,22.7649 1.516,22.8479 1.251,22.8479" id="Fill-14" fill="#002F43"></path>
        <path d="M46.4668,27.7092 C45.7768,27.7092 45.2168,27.1492 45.2168,26.4592 L45.2168,8.1522 L9.2818,8.1522 L9.2818,26.4592 C9.2818,27.1492 8.7228,27.7092 8.0318,27.7092 C7.3418,27.7092 6.7818,27.1492 6.7818,26.4592 L6.7818,6.9022 C6.7818,6.2122 7.3418,5.6522 8.0318,5.6522 L46.4668,5.6522 C47.1568,5.6522 47.7168,6.2122 47.7168,6.9022 L47.7168,26.4592 C47.7168,27.1492 47.1568,27.7092 46.4668,27.7092" id="Fill-16" fill="#097C86"></path>
        <path d="M27.25,43.1955 C26.977,43.1955 26.704,43.1065 26.477,42.9275 L0.477,22.4665 C-0.065,22.0405 -0.159,21.2545 0.268,20.7115 C0.695,20.1705 1.479,20.0735 2.023,20.5025 L27.25,40.3545 L52.477,20.5025 C53.02,20.0735 53.805,20.1685 54.232,20.7115 C54.659,21.2545 54.565,22.0405 54.023,22.4665 L28.023,42.9275 C27.796,43.1065 27.523,43.1955 27.25,43.1955" id="Fill-18" fill="#002F43"></path>
    </g>
</svg>