<?xml version="1.0" encoding="UTF-8"?>
<svg width="51px" height="50px" viewBox="0 0 51 50" version="1.1" xmlns="http://www.w3.org/2000/svg" xmlns:xlink="http://www.w3.org/1999/xlink">
    <!-- Generator: Sketch 51 (57462) - http://www.bohemiancoding.com/sketch -->
    <title>icons/contact/mail</title>
    <desc>Created with Sketch.</desc>
    <defs></defs>
    <g id="icons/contact/mail" stroke="none" stroke-width="1" fill="none" fill-rule="evenodd">
        <polygon id="Fill-1" fill="#097C86" points="7.429 27.7863 17.572 27.7863 17.572 25.0723 7.429 25.0723"></polygon>
        <g id="Group-5" transform="translate(0.000000, -0.927700)">
            <path d="M23.142,48.285 L27.857,48.285 L27.857,42.642 L23.142,42.642 L23.142,48.285 Z M22.286,39.928 L2.714,39.928 L2.714,24.571 C2.714,19.175 7.104,14.785 12.5,14.785 C17.896,14.785 22.286,19.175 22.286,24.571 L22.286,39.928 Z M37.571,12.071 L30.571,12.071 L30.571,14.785 L37.571,14.785 C43.479,14.785 48.286,19.592 48.286,25.5 L48.286,39.928 L25,39.928 L25,24.571 C25,21.188 23.635,17.935 21.253,15.646 L20.357,14.785 L27.857,14.785 L27.857,12.071 L12.5,12.071 C5.607,12.071 0,17.679 0,24.571 L0,41.285 C0,42.033 0.609,42.643 1.357,42.643 L20.429,42.643 L20.429,49.643 C20.429,50.391 21.038,51 21.786,51 L29.214,51 C29.962,51 30.571,50.391 30.571,49.643 L30.571,42.643 L49.643,42.643 C50.391,42.643 51,42.033 51,41.285 L51,25.5 C51,18.096 44.976,12.071 37.571,12.071 Z" id="Fill-2" fill="#000000"></path>
            <path d="M30.571,7.428 L40.857,7.428 L40.857,3.643 L30.571,3.643 L30.571,7.428 Z M27.857,22.214 L30.571,22.214 L30.571,14.785 L30.571,12.071 L30.571,10.821 L30.571,10.143 L42.214,10.143 C42.962,10.143 43.571,9.533 43.571,8.785 L43.571,2.285 C43.571,1.537 42.962,0.928 42.214,0.928 L29.214,0.928 C28.466,0.928 27.857,1.537 27.857,2.285 L27.857,10.821 L27.857,12.071 L27.857,14.785 L27.857,22.214 Z" id="Fill-4" fill="#097C86"></path>
        </g>
    </g>
</svg>