<?xml version="1.0" encoding="UTF-8"?>
<svg width="53px" height="53px" viewBox="0 0 53 53" version="1.1" xmlns="http://www.w3.org/2000/svg" xmlns:xlink="http://www.w3.org/1999/xlink">
    <!-- Generator: Sketch 51 (57462) - http://www.bohemiancoding.com/sketch -->
    <title>icons/contact/phone</title>
    <desc>Created with Sketch.</desc>
    <defs></defs>
    <g id="icons/contact/phone" stroke="none" stroke-width="1" fill="none" fill-rule="evenodd">
        <path d="M9.2576,10.2266 C9.2706,10.2266 9.2816,10.2276 9.2946,10.2276 C9.5286,10.2396 9.7496,10.3596 9.9186,10.5656 L16.9516,19.1616 C17.3586,19.6596 17.3206,20.4916 16.8686,20.9426 L13.5186,24.2916 C12.1696,25.6416 11.8746,27.9676 12.8136,29.5216 C12.8316,29.5666 12.9326,29.7626 13.0856,30.0326 C13.3156,30.4326 13.5936,30.8836 13.9246,31.3736 C14.9156,32.8436 16.0926,34.2626 17.4236,35.5936 C18.7506,36.9216 20.1716,38.1006 21.6486,39.0966 C22.1396,39.4276 22.5906,39.7056 22.9916,39.9356 C23.2456,40.0806 23.4296,40.1776 23.5026,40.2116 C25.0976,41.1456 27.3926,40.8306 28.7256,39.4986 L32.0746,36.1496 C32.5256,35.6986 33.3596,35.6596 33.8566,36.0666 L42.4516,43.0986 C42.6586,43.2686 42.7796,43.4906 42.7916,43.7226 C42.8026,43.9516 42.7076,44.1786 42.5236,44.3636 L37.2216,49.6646 C34.1376,52.7496 20.3926,47.1886 13.1106,39.9076 C5.8296,32.6266 0.2676,18.8806 3.3526,15.7956 L8.6546,10.4946 C8.8286,10.3216 9.0406,10.2266 9.2576,10.2266 M44.0836,41.1046 L35.4876,34.0726 C33.9526,32.8156 31.6526,32.9266 30.2526,34.3276 L26.9036,37.6766 C26.3946,38.1846 25.3676,38.3166 24.7246,37.9446 C24.6116,37.8856 24.4726,37.8136 24.2706,37.6976 C23.9196,37.4976 23.5236,37.2516 23.0886,36.9596 C21.7526,36.0576 20.4596,34.9856 19.2456,33.7716 C18.0336,32.5596 16.9626,31.2676 16.0616,29.9326 C15.7696,29.4996 15.5236,29.1036 15.3236,28.7536 C15.2116,28.5566 15.1406,28.4216 15.0896,28.3226 C14.6996,27.6686 14.8186,26.6376 15.3416,26.1156 L18.6916,22.7646 C20.0906,21.3656 20.2026,19.0656 18.9456,17.5296 L11.9126,8.9346 C11.2786,8.1576 10.3936,7.7026 9.4236,7.6536 C8.4496,7.6036 7.5366,7.9676 6.8316,8.6716 L1.5296,13.9736 C-3.0194,18.5236 3.2716,33.7126 11.2876,41.7296 C17.4406,47.8816 27.8166,53.0176 34.3656,53.0176 C36.3516,53.0176 37.9866,52.5446 39.0436,51.4876 L44.3456,46.1856 C45.0516,45.4806 45.4136,44.5606 45.3656,43.5956 C45.3176,42.6256 44.8616,41.7416 44.0836,41.1046" id="Fill-1" fill="#002F43"></path>
        <path d="M26.4372,0 C25.7262,0 25.1482,0.578 25.1482,1.289 C25.1482,2 25.7262,2.578 26.4372,2.578 C39.6422,2.578 50.3852,13.321 50.3852,26.526 C50.3852,27.237 50.9632,27.815 51.6742,27.815 C52.3852,27.815 52.9632,27.237 52.9632,26.526 C52.9632,11.899 41.0642,0 26.4372,0" id="Fill-3" fill="#097C86"></path>
        <path d="M42.2106,27.8154 C42.9206,27.8154 43.4986,27.2374 43.4986,26.5264 C43.4986,17.1184 35.8456,9.4644 26.4376,9.4644 C25.7266,9.4644 25.1486,10.0434 25.1486,10.7534 C25.1486,11.4634 25.7266,12.0424 26.4376,12.0424 C34.4236,12.0424 40.9216,18.5404 40.9216,26.5264 C40.9216,27.2374 41.4996,27.8154 42.2106,27.8154 Z" id="Fill-5" fill="#097C86"></path>
    </g>
</svg>