<?xml version="1.0" encoding="UTF-8"?>
<svg width="15px" height="16px" viewBox="0 0 15 16" version="1.1" xmlns="http://www.w3.org/2000/svg" xmlns:xlink="http://www.w3.org/1999/xlink">
    <!-- Generator: Sketch 51.1 (57501) - http://www.bohemiancoding.com/sketch -->
    <title>icons/misc/facebook</title>
    <desc>Created with Sketch.</desc>
    <defs></defs>
    <g id="icons/misc/facebook" stroke="none" stroke-width="1" fill="none" fill-rule="evenodd">
        <path d="M11.8392857,0.642857143 C12.5918936,0.642857143 13.2353954,0.910060572 13.7698103,1.44447545 C14.3042251,1.97889032 14.5714286,2.62239207 14.5714286,3.375 L14.5714286,12.4821429 C14.5714286,13.2347508 14.3042251,13.8782525 13.7698103,14.4126674 C13.2353954,14.9470823 12.5918936,15.2142857 11.8392857,15.2142857 L10.0558036,15.2142857 L10.0558036,9.56975446 L11.9436384,9.56975446 L12.2282366,7.36886161 L10.0558036,7.36886161 L10.0558036,5.96484375 C10.0558036,5.61067531 10.1301146,5.34505297 10.2787388,5.16796875 C10.4273631,4.99088453 10.7167017,4.90234375 11.1467634,4.90234375 L12.3041295,4.89285714 L12.3041295,2.92912946 C11.90569,2.87220954 11.3428236,2.84375 10.6155134,2.84375 C9.75539004,2.84375 9.0676179,3.09672366 8.55217634,3.60267857 C8.03673477,4.10863348 7.77901786,4.82328407 7.77901786,5.74665179 L7.77901786,7.36886161 L5.88169643,7.36886161 L5.88169643,9.56975446 L7.77901786,9.56975446 L7.77901786,15.2142857 L2.73214286,15.2142857 C1.97953493,15.2142857 1.33603318,14.9470823 0.801618304,14.4126674 C0.267203429,13.8782525 0,13.2347508 0,12.4821429 L0,3.375 C0,2.62239207 0.267203429,1.97889032 0.801618304,1.44447545 C1.33603318,0.910060572 1.97953493,0.642857143 2.73214286,0.642857143 L11.8392857,0.642857143 Z" id="" fill="#FFFFFF"></path>
    </g>
</svg>