<?xml version="1.0" encoding="UTF-8"?>
<svg width="15px" height="16px" viewBox="0 0 15 16" version="1.1" xmlns="http://www.w3.org/2000/svg" xmlns:xlink="http://www.w3.org/1999/xlink">
    <!-- Generator: Sketch 51.1 (57501) - http://www.bohemiancoding.com/sketch -->
    <title>icons/misc/linkedin</title>
    <desc>Created with Sketch.</desc>
    <defs></defs>
    <g id="icons/misc/linkedin" stroke="none" stroke-width="1" fill="none" fill-rule="evenodd">
        <path d="M2.24832589,12.8426339 L4.43973214,12.8426339 L4.43973214,6.25892857 L2.24832589,6.25892857 L2.24832589,12.8426339 Z M4.58203125,4.22879464 C4.57570681,3.89992395 4.46186867,3.62797727 4.24051339,3.41294643 C4.01915812,3.19791559 3.72507624,3.09040179 3.35825893,3.09040179 C2.99144162,3.09040179 2.69261648,3.19791559 2.46177455,3.41294643 C2.23093263,3.62797727 2.11551339,3.89992395 2.11551339,4.22879464 C2.11551339,4.5513409 2.22777045,4.8217065 2.45228795,5.03989955 C2.67680544,5.25809261 2.96930623,5.3671875 3.32979911,5.3671875 L3.33928571,5.3671875 C3.71242746,5.3671875 4.01283368,5.25809261 4.24051339,5.03989955 C4.4681931,4.8217065 4.58203125,4.5513409 4.58203125,4.22879464 Z M7.8359375,7.18705027 L7.8359375,7.21707589 L7.81696429,7.21707589 C7.82325174,7.20699873 7.82957615,7.19699019 7.8359375,7.18705027 Z M7.8359375,7.18705027 L7.8359375,6.25892857 L5.64453125,6.25892857 C5.66350456,6.67634137 5.66350456,8.87088788 5.64453125,12.8426339 L7.8359375,12.8426339 L7.8359375,9.16183036 C7.8359375,8.92150177 7.8580727,8.74442021 7.90234375,8.63058036 C7.9972103,8.40922508 8.13950798,8.22107592 8.32924107,8.06612723 C8.51897416,7.91117854 8.7529748,7.83370536 9.03125,7.83370536 C9.76488462,7.83370536 10.1316964,8.33016617 10.1316964,9.32310268 L10.1316964,12.8426339 L12.3231027,12.8426339 L12.3231027,9.06696429 C12.3231027,8.09300108 12.0922642,7.3562153 11.6305804,6.85658482 C11.1688965,6.35695435 10.5585975,6.10714286 9.79966518,6.10714286 C8.95125545,6.10714286 8.2966859,6.46710844 7.8359375,7.18705027 Z M14.5714286,3.375 L14.5714286,12.4821429 C14.5714286,13.2347508 14.3042251,13.8782525 13.7698103,14.4126674 C13.2353954,14.9470823 12.5918936,15.2142857 11.8392857,15.2142857 L2.73214286,15.2142857 C1.97953493,15.2142857 1.33603318,14.9470823 0.801618304,14.4126674 C0.267203429,13.8782525 0,13.2347508 0,12.4821429 L0,3.375 C0,2.62239207 0.267203429,1.97889032 0.801618304,1.44447545 C1.33603318,0.910060572 1.97953493,0.642857143 2.73214286,0.642857143 L11.8392857,0.642857143 C12.5918936,0.642857143 13.2353954,0.910060572 13.7698103,1.44447545 C14.3042251,1.97889032 14.5714286,2.62239207 14.5714286,3.375 Z" id="" fill="#FFFFFF"></path>
    </g>
</svg>