<?xml version="1.0" encoding="UTF-8"?>
<svg width="15px" height="16px" viewBox="0 0 15 16" version="1.1" xmlns="http://www.w3.org/2000/svg" xmlns:xlink="http://www.w3.org/1999/xlink">
    <!-- Generator: Sketch 51.1 (57501) - http://www.bohemiancoding.com/sketch -->
    <title>icons/misc/twitter</title>
    <desc>Created with Sketch.</desc>
    <defs></defs>
    <g id="icons/misc/twitter" stroke="none" stroke-width="1" fill="none" fill-rule="evenodd">
        <path d="M12.1428571,5.21540179 C11.7886887,5.3735127 11.406066,5.4810265 10.9949777,5.53794643 C11.4250394,5.28496897 11.7191212,4.91499499 11.8772321,4.42801339 C11.4661438,4.66834198 11.0424129,4.82961268 10.6060268,4.91183036 C10.2202362,4.49441756 9.73642404,4.28571429 9.15457589,4.28571429 C8.60434993,4.28571429 8.13476757,4.48018779 7.74581473,4.86914062 C7.35686189,5.25809346 7.16238839,5.72767582 7.16238839,6.27790179 C7.16238839,6.46131044 7.17819925,6.61309464 7.20982143,6.73325893 C6.39396914,6.68898787 5.62872381,6.48344677 4.9140625,6.11662946 C4.19940119,5.74981215 3.5922644,5.25967569 3.09263393,4.64620536 C2.90922527,4.96242718 2.81752232,5.29761728 2.81752232,5.65178571 C2.81752232,6.37277146 3.10527986,6.92615134 3.68080357,7.31194196 C3.38355506,7.30561753 3.06733799,7.22340109 2.73214286,7.06529018 L2.73214286,7.08426339 C2.73214286,7.55859612 2.8902514,7.98074592 3.20647321,8.35072545 C3.52269503,8.72070497 3.91164204,8.94996235 4.37332589,9.03850446 C4.18991724,9.08909996 4.02864653,9.11439732 3.88950893,9.11439732 C3.80729126,9.11439732 3.6839666,9.10174864 3.51953125,9.07645089 C3.65234441,9.47489039 3.88792614,9.80375614 4.22628348,10.063058 C4.56464083,10.3223599 4.94884458,10.4551711 5.37890625,10.4614955 C4.64527163,11.0306948 3.81994506,11.3152902 2.90290179,11.3152902 C2.73846644,11.3152902 2.5803579,11.3058037 2.42857143,11.2868304 C3.36458801,11.8813274 4.382807,12.1785714 5.48325893,12.1785714 C6.1915958,12.1785714 6.85565166,12.0663144 7.47544643,11.8417969 C8.09524119,11.6172794 8.62648588,11.3168732 9.06919643,10.9405692 C9.51190698,10.5642652 9.89294855,10.1310478 10.2123326,9.64090402 C10.5317166,9.1507602 10.7688794,8.63848854 10.9238281,8.10407366 C11.0787768,7.56965879 11.15625,7.03683301 11.15625,6.50558036 C11.15625,6.3917405 11.1530878,6.30636189 11.1467634,6.24944196 C11.5452029,5.96484233 11.8772308,5.62016571 12.1428571,5.21540179 Z M14.5714286,3.375 L14.5714286,12.4821429 C14.5714286,13.2347508 14.3042251,13.8782525 13.7698103,14.4126674 C13.2353954,14.9470823 12.5918936,15.2142857 11.8392857,15.2142857 L2.73214286,15.2142857 C1.97953493,15.2142857 1.33603318,14.9470823 0.801618304,14.4126674 C0.267203429,13.8782525 0,13.2347508 0,12.4821429 L0,3.375 C0,2.62239207 0.267203429,1.97889032 0.801618304,1.44447545 C1.33603318,0.910060572 1.97953493,0.642857143 2.73214286,0.642857143 L11.8392857,0.642857143 C12.5918936,0.642857143 13.2353954,0.910060572 13.7698103,1.44447545 C14.3042251,1.97889032 14.5714286,2.62239207 14.5714286,3.375 Z" id="ï‚" fill="#FFFFFF"></path>
    </g>
</svg>