<?xml version="1.0" encoding="UTF-8"?>
<svg width="58px" height="52px" viewBox="0 0 58 52" version="1.1" xmlns="http://www.w3.org/2000/svg" xmlns:xlink="http://www.w3.org/1999/xlink">
    <!-- Generator: Sketch 51.1 (57501) - http://www.bohemiancoding.com/sketch -->
    <title>icons/benefits/community</title>
    <desc>Created with Sketch.</desc>
    <defs>
        <polygon id="path-1" points="0.0004 0.971018852 58.002 0.971018852 58.002 52.9999 0.0004 52.9999"></polygon>
    </defs>
    <g id="icons/benefits/community" stroke="none" stroke-width="1" fill="none" fill-rule="evenodd">
        <g id="Group-3" transform="translate(0.000000, -0.971000)">
            <mask id="mask-2" fill="white">
                <use xlink:href="#path-1"></use>
            </mask>
            <g id="Clip-2"></g>
            <path d="M53.4424,23.0889 L53.4414,23.0889 C52.7854,24.4909 51.8754,25.8269 50.6614,27.1759 C45.1674,33.2719 39.3724,39.2579 33.4364,44.9669 C32.5954,45.7759 31.7484,46.5739 30.9004,47.3719 L29.8314,48.3799 C29.7924,48.4169 29.7494,48.4539 29.6964,48.4989 L29.0154,49.0699 L28.3134,48.5079 L27.6544,47.8899 C27.1094,47.3789 26.5694,46.8729 26.0344,46.3639 C20.7494,41.3419 15.5684,36.0939 10.6354,30.7649 C9.3104,29.3359 7.9634,27.8809 6.6904,26.3929 C5.1224,24.5599 4.0814,22.4849 3.5954,20.2269 C2.8604,16.8079 3.4634,13.5079 5.3854,10.4199 C6.9494,7.9069 9.1064,6.0939 11.7974,5.0299 C13.4624,4.3719 15.2324,4.1359 17.2094,4.3119 C18.9134,4.4629 20.3564,4.8259 21.6244,5.4209 C24.5504,6.7949 26.5024,9.0389 27.4214,12.0909 C27.6374,12.8079 28.2724,13.2889 29.0034,13.2899 L29.0044,13.2899 C29.7404,13.2899 30.3784,12.8139 30.5884,12.1039 C31.4754,9.1079 33.3794,6.8809 36.2454,5.4869 C37.5524,4.8499 39.0164,4.4689 40.7184,4.3209 C42.1074,4.1999 43.2584,4.2499 44.3484,4.4789 C46.6984,4.9719 48.7954,6.1129 50.5814,7.8709 C52.7464,10.0009 54.0854,12.5789 54.5594,15.5319 C54.9694,18.0829 54.5934,20.6259 53.4424,23.0889 M57.9004,15.7709 L57.9004,15.7699 C57.6474,13.4079 56.8874,11.1469 55.6444,9.0479 C53.7244,5.8099 51.0574,3.4639 47.7174,2.0769 C45.6624,1.2229 43.4184,0.8619 41.0454,1.0069 C38.9604,1.1349 37.1184,1.5519 35.4154,2.2839 C33.2524,3.2149 31.3994,4.6199 29.9084,6.4599 L28.9964,7.5239 L27.9264,6.2449 C25.8104,3.7449 23.0674,2.1099 19.7734,1.3859 C18.0324,1.0049 16.2844,0.8839 14.5834,1.0329 C11.9704,1.2589 9.5514,2.1379 7.3934,3.6439 C3.6284,6.2699 1.2434,9.9259 0.3034,14.5089 C0.2004,15.0119 0.1544,15.5399 0.1054,16.0989 C0.0824,16.3779 0.0574,16.6559 0.0264,16.9329 L0.0004,17.1439 L0.0654,18.6909 C0.3144,21.8789 1.4204,24.7859 3.4424,27.5799 C4.1294,28.5279 4.9134,29.3839 5.7434,30.2909 L6.1854,30.7759 C11.0614,36.1359 16.0594,41.2949 21.0394,46.1079 C22.5454,47.5629 24.0744,48.9939 25.6034,50.4239 C26.3424,51.1169 27.0834,51.8089 27.8204,52.5049 C28.1144,52.7799 28.4154,52.9319 28.7644,52.9809 L28.9034,52.9999 L29.2234,52.9939 C29.2934,52.9789 29.3624,52.9639 29.4294,52.9459 C29.7014,52.8719 29.9284,52.7449 30.1264,52.5589 C30.8934,51.8339 31.6644,51.1119 32.4344,50.3899 C34.1854,48.7469 35.9374,47.1049 37.6614,45.4319 C42.8984,40.3499 48.1484,34.8829 53.2634,29.1839 C55.2994,26.9169 56.7054,24.3839 57.4394,21.6579 C57.7394,20.5519 57.9194,19.4239 57.9724,18.3049 C57.9754,18.2239 57.9874,18.1359 58.0024,18.0479 L57.9754,16.5709 C57.9524,16.3039 57.9284,16.0369 57.9004,15.7709" id="Fill-1" fill="#002F43" mask="url(#mask-2)"></path>
        </g>
        <path d="M42.7432,8.3054 C42.1762,8.1354 41.8082,8.0954 41.4762,8.1674 C40.6852,8.3404 40.1402,9.0134 40.1542,9.8034 C40.1692,10.5944 40.7342,11.2494 41.5302,11.3944 C42.9092,11.6464 44.0372,12.3794 44.8832,13.5724 C45.6162,14.6084 46.0212,15.8404 46.1222,17.3374 C46.1882,18.3244 46.8652,19.0154 47.7672,19.0184 C48.2702,19.0134 48.6632,18.8364 48.9782,18.5024 C49.2902,18.1714 49.4462,17.7384 49.4182,17.2814 C49.3392,16.0124 49.1122,14.9084 48.7232,13.9054 C47.6002,11.0044 45.6432,9.1734 42.7432,8.3054" id="Fill-4" fill="#097C86"></path>
        <path d="M44.5713,22.1618 L44.5643,22.1618 C43.6783,22.1658 42.9303,22.9168 42.9323,23.8028 C42.9333,24.2368 43.1073,24.6478 43.4243,24.9608 C43.7373,25.2728 44.1753,25.4458 44.5793,25.4398 L44.5803,25.4398 C45.4883,25.4348 46.2233,24.6958 46.2203,23.7918 C46.2193,23.3578 46.0463,22.9488 45.7333,22.6398 C45.4213,22.3308 45.0083,22.1618 44.5713,22.1618" id="Fill-6" fill="#097C86"></path>
    </g>
</svg>