<?xml version="1.0" encoding="UTF-8"?>
<svg width="64px" height="65px" viewBox="0 0 64 65" version="1.1" xmlns="http://www.w3.org/2000/svg" xmlns:xlink="http://www.w3.org/1999/xlink">
    <!-- Generator: Sketch 51.1 (57501) - http://www.bohemiancoding.com/sketch -->
    <title>icons/benefits/connection</title>
    <desc>Created with Sketch.</desc>
    <defs>
        <polygon id="path-1" points="0.25 0.556 15 0.556 15 15.3046 0.25 15.3046"></polygon>
    </defs>
    <g id="icons/benefits/connection" stroke="none" stroke-width="1" fill="none" fill-rule="evenodd">
        <g id="Group">
            <path d="M38.3604,54.3339 L38.2194,54.0319 C37.0174,51.4569 34.4284,49.7919 31.6254,49.7919 C28.8214,49.7919 26.2324,51.4569 25.0304,54.0319 L24.8894,54.3339 L24.5734,54.2299 C17.7744,52.0009 12.3794,46.6049 10.1384,39.7959 L10.0354,39.4799 L10.3354,39.3389 C12.8984,38.1399 14.5544,35.5419 14.5544,32.7219 C14.5544,29.9129 12.8904,27.3239 10.3144,26.1269 L10.0124,25.9869 L10.1164,25.6699 C12.3434,18.8559 17.7484,13.4519 24.5734,11.2129 L24.8894,11.1099 L25.0304,11.4119 C26.2244,13.9869 28.8134,15.6509 31.6254,15.6509 C34.4374,15.6509 37.0264,13.9869 38.2194,11.4119 L38.3584,11.1099 L38.6764,11.2129 C45.5024,13.4519 50.9064,18.8559 53.1334,25.6699 L53.2374,25.9869 L52.9354,26.1269 C50.3604,27.3239 48.6964,29.9129 48.6964,32.7219 C48.6964,35.5249 50.3524,38.1139 52.9154,39.3169 L53.2154,39.4589 L53.1124,39.7739 C50.8744,46.5969 45.4774,52.0009 38.6764,54.2299 L38.3604,54.3339 Z M31.6254,60.9229 C29.4644,60.9229 27.7724,59.2299 27.7724,57.0699 C27.7724,54.9089 29.4644,53.2159 31.6254,53.2159 C33.7864,53.2159 35.4784,54.9089 35.4784,57.0699 C35.4784,59.2299 33.7864,60.9229 31.6254,60.9229 Z M7.2774,36.5749 C5.1164,36.5749 3.4234,34.8829 3.4234,32.7219 C3.4234,30.5619 5.1164,28.8689 7.2774,28.8689 C9.4384,28.8689 11.1314,30.5619 11.1314,32.7219 C11.1314,34.8829 9.4384,36.5749 7.2774,36.5749 Z M31.6254,4.5209 C33.7864,4.5209 35.4784,6.2129 35.4784,8.3739 C35.4784,10.5349 33.7864,12.2279 31.6254,12.2279 C29.4644,12.2279 27.7724,10.5349 27.7724,8.3739 C27.7724,6.2129 29.4644,4.5209 31.6254,4.5209 Z M59.8264,32.7219 C59.8264,34.8829 58.1334,36.5749 55.9724,36.5749 C53.8124,36.5749 52.1204,34.8829 52.1204,32.7219 C52.1204,30.5619 53.8124,28.8689 55.9724,28.8689 C58.1334,28.8689 59.8264,30.5619 59.8264,32.7219 Z M38.8714,57.7589 L39.1044,57.6879 C47.5484,55.1639 54.0944,48.6259 56.6134,40.2009 L56.6824,39.9689 L56.9224,39.9369 C60.5304,39.4599 63.2504,36.3579 63.2504,32.7219 C63.2504,29.0889 60.5214,25.9969 56.9034,25.5289 L56.9024,25.5289 L56.6614,25.4969 L56.5914,25.2629 C54.0744,16.8209 47.5364,10.2749 39.1044,7.7549 L38.8724,7.6859 L38.8394,7.4449 C38.3624,3.8259 35.2604,1.0969 31.6254,1.0969 C27.9894,1.0969 24.8874,3.8259 24.4104,7.4449 L24.3784,7.6859 L24.1454,7.7549 C15.7134,10.2759 9.1754,16.8209 6.6584,25.2639 L6.5894,25.4969 L6.3474,25.5289 C2.7284,25.9969 0.0004,29.0889 0.0004,32.7219 C0.0004,36.3669 2.7284,39.4689 6.3464,39.9369 L6.5894,39.9689 L6.6584,40.2019 C9.1804,48.6319 15.7174,55.1689 24.1454,57.6879 L24.3794,57.7589 L24.4104,57.9999 C24.8784,61.6179 27.9794,64.3469 31.6254,64.3469 C35.2714,64.3469 38.3734,61.6179 38.8394,57.9999 L38.8714,57.7589 Z" id="Fill-1" fill="#002F43"></path>
            <g id="Group-5" transform="translate(24.000000, 0.444000)">
                <mask id="mask-2" fill="white">
                    <use xlink:href="#path-1"></use>
                </mask>
                <g id="Clip-4"></g>
                <path d="M7.625,11.5066 C5.653,11.5066 4.049,9.9026 4.049,7.9306 C4.049,5.9586 5.653,4.3546 7.625,4.3546 C9.597,4.3546 11.201,5.9586 11.201,7.9306 C11.201,9.9026 9.597,11.5066 7.625,11.5066 M7.625,0.5556 C3.559,0.5556 0.25,3.8636 0.25,7.9306 C0.25,11.9966 3.559,15.3046 7.625,15.3046 C11.691,15.3046 15,11.9966 15,7.9306 C15,3.8636 11.691,0.5556 7.625,0.5556" id="Fill-3" fill="#097C86" mask="url(#mask-2)"></path>
            </g>
            <path d="M31.625,60.6459 C29.653,60.6459 28.049,59.0419 28.049,57.0699 C28.049,55.0979 29.653,53.4929 31.625,53.4929 C33.597,53.4929 35.201,55.0979 35.201,57.0699 C35.201,59.0419 33.597,60.6459 31.625,60.6459 M31.625,49.6949 C27.559,49.6949 24.25,53.0029 24.25,57.0699 C24.25,61.1359 27.559,64.4439 31.625,64.4439 C35.691,64.4439 39,61.1359 39,57.0699 C39,53.0029 35.691,49.6949 31.625,49.6949" id="Fill-6" fill="#097C86"></path>
            <path d="M55.9727,36.2983 C54.0007,36.2983 52.3977,34.6943 52.3977,32.7223 C52.3977,30.7503 54.0007,29.1453 55.9727,29.1453 C57.9457,29.1453 59.5487,30.7503 59.5487,32.7223 C59.5487,34.6943 57.9457,36.2983 55.9727,36.2983 M55.9727,25.3473 C51.9077,25.3473 48.5977,28.6553 48.5977,32.7223 C48.5977,36.7883 51.9077,40.0963 55.9727,40.0963 C60.0387,40.0963 63.3477,36.7883 63.3477,32.7223 C63.3477,28.6553 60.0387,25.3473 55.9727,25.3473" id="Fill-8" fill="#097C86"></path>
            <path d="M7.375,36.2983 C5.403,36.2983 3.799,34.6943 3.799,32.7223 C3.799,30.7503 5.403,29.1453 7.375,29.1453 C9.347,29.1453 10.951,30.7503 10.951,32.7223 C10.951,34.6943 9.347,36.2983 7.375,36.2983 M7.375,25.3473 C3.309,25.3473 0,28.6553 0,32.7223 C0,36.7883 3.309,40.0963 7.375,40.0963 C11.441,40.0963 14.75,36.7883 14.75,32.7223 C14.75,28.6553 11.441,25.3473 7.375,25.3473" id="Fill-10" fill="#097C86"></path>
        </g>
    </g>
</svg>