<?xml version="1.0" encoding="UTF-8"?>
<svg width="65px" height="59px" viewBox="0 0 65 59" version="1.1" xmlns="http://www.w3.org/2000/svg" xmlns:xlink="http://www.w3.org/1999/xlink">
    <!-- Generator: Sketch 51.1 (57501) - http://www.bohemiancoding.com/sketch -->
    <title>icons/benefits/family</title>
    <desc>Created with Sketch.</desc>
    <defs>
        <polygon id="path-1" points="0 0.12 64.60375 0.12 64.60375 56.6264 0 56.6264"></polygon>
    </defs>
    <g id="icons/benefits/family" stroke="none" stroke-width="1" fill="none" fill-rule="evenodd">
        <g id="Group-3" transform="translate(0.000000, -0.119600)">
            <mask id="mask-2" fill="white">
                <use xlink:href="#path-1"></use>
            </mask>
            <g id="Clip-2"></g>
            <path d="M61.043,43.7764 C61.765,43.5374 62.419,43.1354 62.953,42.5994 L63.169,42.3854 C65.082,40.4724 65.082,37.3594 63.169,35.4474 L52.274,24.5534 C53.961,24.3814 55.523,23.6454 56.723,22.4454 L58.669,20.4984 L43.562,5.3854 C43.439,5.2674 43.3,5.1744 43.145,5.1094 L43.074,5.0844 C43.023,5.0654 42.971,5.0464 42.917,5.0344 L21.141,0.1194 L20.609,0.6484 C19.012,2.2434 17.419,3.8494 15.825,5.4564 C13.048,8.2594 10.329,10.9964 7.628,13.6354 L1.925,7.9324 L0,9.8564 L6.696,16.5534 L6.776,16.8814 C6.864,17.2364 6.953,17.5964 7.043,17.9684 C8.439,23.5474 9.346,26.7034 9.821,27.6314 C9.879,27.7414 9.932,27.8244 9.974,27.8724 L10.022,27.9364 C10.038,27.9644 10.063,28.0064 10.105,28.0494 L15.506,33.4514 L16.212,30.3074 L12.197,26.3094 C11.932,25.7664 10.983,22.5044 9.687,17.3224 C9.603,16.9734 9.517,16.6244 9.431,16.2764 L9.444,15.6674 C12.177,12.9984 14.936,10.2214 17.758,7.3734 C19.171,5.9474 20.585,4.5224 22.002,3.1054 L41.933,7.6024 L54.82,20.4994 L54.798,20.5224 C53.027,22.2904 50.117,22.3204 48.314,20.5924 L39.157,11.4344 L39.018,11.5764 C38.919,11.5514 38.818,11.5374 38.717,11.5344 L38.649,11.5344 C38.497,11.5374 38.349,11.5674 38.201,11.6224 L38.141,11.6454 C37.995,11.7094 37.862,11.7974 37.741,11.9124 L37.701,11.9494 C37.611,12.0444 37.545,12.1304 37.494,12.2214 C37.308,12.5524 37.057,12.8994 36.728,13.2814 C35.421,14.8024 33.434,15.9114 31.132,16.4044 C28.883,16.8834 26.76,16.6444 25.59,15.7804 C25.297,15.5644 24.939,15.4754 24.578,15.5294 C24.219,15.5844 23.902,15.7754 23.687,16.0684 C23.471,16.3604 23.382,16.7194 23.437,17.0794 C23.491,17.4394 23.682,17.7554 23.975,17.9714 C25.754,19.2844 28.709,19.7044 31.701,19.0664 C34.497,18.4684 36.974,17.0894 38.676,15.1844 C38.734,15.1184 38.792,15.0524 38.849,14.9854 L61.244,37.3724 C61.653,37.7824 61.879,38.3314 61.879,38.9174 C61.88,39.5024 61.654,40.0504 61.244,40.4604 L61.029,40.6744 C60.208,41.4974 58.767,41.4974 57.943,40.6764 L49.473,32.2054 L47.548,34.1294 L60.138,46.7194 C60.548,47.1294 60.773,47.6784 60.773,48.2644 C60.773,48.8494 60.548,49.3984 60.138,49.8084 L59.924,50.0224 C59.534,50.4114 58.972,50.6354 58.38,50.6354 C57.788,50.6354 57.225,50.4114 56.835,50.0224 L45.907,39.0944 L43.979,41.0154 L51.477,48.5124 C51.889,48.9244 52.115,49.4734 52.115,50.0574 C52.115,50.6424 51.888,51.1904 51.476,51.6024 L51.263,51.8164 C50.873,52.2054 50.31,52.4284 49.718,52.4284 C49.126,52.4284 48.564,52.2054 48.174,51.8164 L40.669,44.3104 L38.737,46.2344 L42.465,49.9614 C42.877,50.3744 43.105,50.9244 43.106,51.5114 C43.108,52.0974 42.883,52.6464 42.472,53.0584 L42.255,53.2744 C41.406,54.1224 40.021,54.1164 39.164,53.2614 L35.43,49.5264 L33.502,51.4464 L37.239,55.1854 C38.169,56.1144 39.406,56.6264 40.722,56.6264 C42.029,56.6264 43.258,56.1194 44.18,55.1974 L44.396,54.9824 C44.934,54.4434 45.337,53.7874 45.575,53.0654 L46.249,53.7394 C47.173,54.6644 48.404,55.1734 49.717,55.1734 C51.029,55.1734 52.262,54.6644 53.188,53.7384 L53.4,53.5254 C53.938,52.9884 54.34,52.3344 54.578,51.6144 L54.91,51.9464 C55.835,52.8714 57.066,53.3804 58.379,53.3804 C59.69,53.3804 60.923,52.8714 61.849,51.9464 L62.063,51.7334 C63.976,49.8204 63.976,46.7074 62.063,44.7954 L61.043,43.7764 Z" id="Fill-1" fill="#002F43" mask="url(#mask-2)"></path>
        </g>
        <path d="M24.3955,51.798 L23.7645,51.951 L23.4215,51.604 C21.8925,50.05 20.3445,48.505 18.8295,47.004 C18.0535,46.237 17.2785,45.47 16.5055,44.7 L19.1305,33.085 L23.6945,28.522 C24.2375,29.395 24.1265,30.544 23.3945,31.298 L20.6545,34.046 C20.5655,34.182 20.4125,34.425 20.3765,34.531 L20.3245,34.683 L22.0565,36.316 L28.7815,29.761 L34.0785,24.464 C34.3735,24.168 34.8905,24.169 35.1855,24.465 L35.3155,24.594 C35.6205,24.899 35.6205,25.396 35.3155,25.701 L29.9115,31.106 L31.7605,33.107 L39.7325,25.133 C40.0255,24.84 40.5475,24.841 40.8405,25.133 L40.9695,25.263 C41.2745,25.568 41.2745,26.065 40.9695,26.371 L33.0025,34.336 L34.9275,36.261 L40.8155,30.372 C41.1085,30.077 41.6255,30.074 41.9255,30.374 L42.0535,30.501 C42.3595,30.807 42.3595,31.304 42.0545,31.609 L36.1655,37.499 L38.0905,39.424 L41.6915,35.824 C41.9985,35.516 42.4985,35.514 42.8065,35.822 L42.9355,35.95 C43.2305,36.245 43.2345,36.734 42.9445,37.042 L29.6365,50.351 C29.2275,50.503 27.6905,50.973 24.3955,51.798 Z M44.8595,34.024 L44.7295,33.896 C44.5475,33.713 44.3395,33.553 44.0985,33.408 C45.3425,32.034 45.3025,29.902 43.9755,28.575 L43.8475,28.448 C43.6585,28.258 43.4405,28.091 43.1875,27.943 C44.2535,26.559 44.1475,24.593 42.8925,23.338 L42.7625,23.208 C42.1025,22.547 41.2215,22.184 40.2845,22.184 C39.3465,22.184 38.4655,22.547 37.8055,23.208 L37.7195,23.293 C37.5765,23.054 37.4165,22.848 37.2375,22.669 L37.1085,22.539 C35.7435,21.173 33.5185,21.173 32.1515,22.539 L26.5075,28.182 C26.2665,27.43 25.8525,26.748 25.2945,26.19 L23.7355,24.631 L17.0185,31.349 L16.1715,33.833 L13.8795,43.974 L9.9245,47.929 L11.8485,49.854 L14.8315,46.871 C15.5235,47.561 16.2175,48.251 16.9135,48.939 C18.4135,50.423 20.1745,52.174 21.9345,53.972 L18.9515,56.956 L20.8765,58.88 L25.4075,54.349 C30.6785,53.021 31.0195,52.744 31.2385,52.566 C31.2565,52.552 31.2735,52.537 31.2995,52.512 L45.2735,38.564 C45.5215,38.315 45.6385,37.79 45.6605,37.685 C45.7125,37.416 45.8835,36.521 45.8695,36.277 C45.8165,35.422 45.4575,34.622 44.8595,34.024 Z" id="Fill-4" fill="#097C86"></path>
    </g>
</svg>