<?xml version="1.0" encoding="UTF-8"?>
<svg width="64px" height="51px" viewBox="0 0 64 51" version="1.1" xmlns="http://www.w3.org/2000/svg" xmlns:xlink="http://www.w3.org/1999/xlink">
    <!-- Generator: Sketch 51.1 (57501) - http://www.bohemiancoding.com/sketch -->
    <title>icons/benefits/growth</title>
    <desc>Created with Sketch.</desc>
    <defs>
        <polygon id="path-1" points="0.6024 0.7129 7 0.7129 7 3.9999 0.6024 3.9999"></polygon>
    </defs>
    <g id="icons/benefits/growth" stroke="none" stroke-width="1" fill="none" fill-rule="evenodd">
        <g id="Group-3" transform="translate(56.000000, 46.000000)">
            <mask id="mask-2" fill="white">
                <use xlink:href="#path-1"></use>
            </mask>
            <g id="Clip-2"></g>
            <path d="M5.3564,0.7129 L2.2464,0.7129 C1.3394,0.7129 0.6024,1.4499 0.6024,2.3569 C0.6024,3.2629 1.3394,3.9999 2.2464,3.9999 L5.3564,3.9999 C6.2624,3.9999 7.0004,3.2629 7.0004,2.3569 C7.0004,1.4499 6.2624,0.7129 5.3564,0.7129" id="Fill-1" fill="#002F43" mask="url(#mask-2)"></path>
        </g>
        <path d="M54.896,47 L50.997,47 L50.997,10 L47.709,10 L47.709,47 L42.644,47 C41.738,47 41,47.737 41,48.644 C41,49.55 41.738,50.287 42.644,50.287 L54.896,50.287 C55.802,50.287 56.54,49.55 56.54,48.644 C56.54,47.737 55.802,47 54.896,47" id="Fill-4" fill="#002F43"></path>
        <path d="M36.25,46.876 L33.091,46.876 L33.091,24 L29.803,24.022 L29.803,46.891 L15.28,46.891 L15.28,39.732 L11.993,39.732 L11.993,46.876 L1.644,46.876 C0.737,46.876 0,47.613 0,48.52 C0,49.426 0.737,50.163 1.644,50.163 L36.25,50.163 C37.156,50.163 37.894,49.426 37.894,48.52 C37.894,47.613 37.156,46.876 36.25,46.876" id="Fill-6" fill="#002F43"></path>
        <path d="M47.688,7.868 L46.467,7.868 C43.638,7.865 41.206,5.974 40.471,3.295 L41.692,3.295 C44.521,3.298 46.954,5.188 47.688,7.868 Z M58.698,3.295 C57.963,5.974 55.531,7.865 52.702,7.868 L51.464,7.868 C52.168,5.284 54.456,3.43 57.154,3.295 L58.698,3.295 Z M60.563,0 L57.445,0 C54.282,0.001 51.34,1.579 49.584,4.168 C47.826,1.576 44.885,0 41.721,0 L41.693,0 L38.644,0 C37.737,0 37,0.737 37,1.644 C37.004,6.858 41.251,11.121 46.466,11.147 L52.711,11.147 C57.943,11.139 62.203,6.875 62.207,1.643 C62.207,0.737 61.469,0 60.563,0 Z" id="Fill-8" fill="#097C86"></path>
        <path d="M11.741,36.861 L10.535,36.861 C7.707,36.858 5.274,34.967 4.54,32.288 L5.788,32.288 C8.596,32.31 11.012,34.199 11.741,36.861 Z M22.773,32.288 C22.039,34.967 19.606,36.858 16.778,36.861 L15.48,36.861 C16.218,34.165 18.669,32.302 21.513,32.288 L22.773,32.288 Z M24.594,29 L21.513,29 C18.35,29.002 15.409,30.58 13.653,33.169 C11.896,30.58 8.955,29.002 5.792,29 L2.643,29 C1.737,29 1,29.737 1,30.645 C1.004,35.876 5.263,40.139 10.496,40.148 L16.741,40.148 C21.973,40.139 26.233,35.876 26.237,30.644 C26.237,29.737 25.5,29 24.594,29 Z" id="Fill-10" fill="#097C86"></path>
        <path d="M29.757,21.861 L28.505,21.861 C25.676,21.858 23.243,19.967 22.509,17.287 L23.761,17.287 C26.59,17.291 29.023,19.181 29.757,21.861 Z M40.736,17.287 C40.001,19.967 37.569,21.858 34.739,21.861 L33.488,21.861 C34.222,19.181 36.654,17.291 39.483,17.287 L40.736,17.287 Z M42.601,14 L39.482,14 C36.318,14.004 33.376,15.584 31.622,18.175 C29.865,15.587 26.925,14.009 23.762,14.008 L20.644,14.008 C19.737,14.008 19,14.745 19,15.653 C19.008,20.883 23.272,25.144 28.504,25.148 L33.928,25.133 L33.919,25.149 L34.74,25.148 C39.977,25.144 44.24,20.88 44.245,15.644 C44.245,14.737 43.508,14 42.601,14 Z" id="Fill-12" fill="#097C86"></path>
    </g>
</svg>