<?xml version="1.0" encoding="UTF-8"?>
<svg width="63px" height="51px" viewBox="0 0 63 51" version="1.1" xmlns="http://www.w3.org/2000/svg" xmlns:xlink="http://www.w3.org/1999/xlink">
    <!-- Generator: Sketch 51.1 (57501) - http://www.bohemiancoding.com/sketch -->
    <title>icons/benefits/package</title>
    <desc>Created with Sketch.</desc>
    <defs>
        <polygon id="path-1" points="0 0.5411 62.5 0.5411 62.5 52 0 52"></polygon>
    </defs>
    <g id="icons/benefits/package" stroke="none" stroke-width="1" fill="none" fill-rule="evenodd">
        <g id="Group-3" transform="translate(0.000000, -0.541000)">
            <mask id="mask-2" fill="white">
                <use xlink:href="#path-1"></use>
            </mask>
            <g id="Clip-2"></g>
            <path d="M3.083,13.1011 C3.083,12.5261 3.551,12.0591 4.125,12.0591 L6.458,12.0591 L6.458,48.9161 L4.125,48.9161 C3.551,48.9161 3.083,48.4491 3.083,47.8751 L3.083,13.1011 Z M9.542,48.9161 L52.958,48.9161 L52.958,12.0591 L9.542,12.0591 L9.542,48.9161 Z M22.181,8.9761 L22.181,4.6661 C22.181,4.0911 22.648,3.6241 23.223,3.6241 L39.277,3.6241 C39.852,3.6241 40.319,4.0911 40.319,4.6661 L40.319,8.9761 L22.181,8.9761 Z M58.375,48.9161 L56.042,48.9161 L56.042,12.0591 L58.375,12.0591 C58.949,12.0591 59.417,12.5261 59.417,13.1011 L59.417,47.8751 C59.417,48.4491 58.949,48.9161 58.375,48.9161 Z M58.375,8.9761 L43.402,8.9761 L43.402,4.6661 C43.402,2.3921 41.552,0.5411 39.277,0.5411 L23.223,0.5411 C20.948,0.5411 19.098,2.3921 19.098,4.6661 L19.098,8.9761 L4.125,8.9761 C1.851,8.9761 0,10.8271 0,13.1011 L0,47.8751 C0,50.1491 1.851,52.0001 4.125,52.0001 L58.375,52.0001 C60.649,52.0001 62.5,50.1491 62.5,47.8751 L62.5,13.1011 C62.5,10.8271 60.649,8.9761 58.375,8.9761 Z" id="Fill-1" fill="#002F43" mask="url(#mask-2)"></path>
        </g>
        <path d="M31.25,37.9365 C30.537,37.9365 29.958,37.3585 29.958,36.6445 L29.958,23.2485 C29.958,22.5355 30.537,21.9575 31.25,21.9575 C31.963,21.9575 32.542,22.5355 32.542,23.2485 L32.542,36.6445 C32.542,37.3585 31.963,37.9365 31.25,37.9365" id="Fill-4" fill="#097C86"></path>
        <path d="M37.9482,31.2388 L24.5522,31.2388 C23.8392,31.2388 23.2602,30.6608 23.2602,29.9468 C23.2602,29.2328 23.8392,28.6558 24.5522,28.6558 L37.9482,28.6558 C38.6612,28.6558 39.2392,29.2328 39.2392,29.9468 C39.2392,30.6608 38.6612,31.2388 37.9482,31.2388" id="Fill-6" fill="#097C86"></path>
    </g>
</svg>