<?xml version="1.0" encoding="UTF-8"?>
<svg width="62px" height="57px" viewBox="0 0 62 57" version="1.1" xmlns="http://www.w3.org/2000/svg" xmlns:xlink="http://www.w3.org/1999/xlink">
    <!-- Generator: Sketch 51.1 (57501) - http://www.bohemiancoding.com/sketch -->
    <title>icons/benefits/timeoff</title>
    <desc>Created with Sketch.</desc>
    <defs>
        <polygon id="path-1" points="0.0004 0.995 61.996 0.995 61.996 57 0.0004 57"></polygon>
    </defs>
    <g id="icons/benefits/timeoff" stroke="none" stroke-width="1" fill="none" fill-rule="evenodd">
        <path d="M32.9063164,10.021 C32.8153164,10.007 32.7253164,10 32.6363164,10 C31.7993164,10 31.0563164,10.615 30.9173164,11.474 L28.1573164,29.176 L15.9033164,35.885 C15.0633164,36.347 14.7533164,37.408 15.2123164,38.249 C15.4363164,38.658 15.8053164,38.956 16.2513164,39.086 C16.6973164,39.217 17.1673164,39.165 17.5763164,38.94 L30.6503164,31.771 C30.6723164,31.759 30.7103164,31.736 30.7523164,31.707 L30.8593164,31.63 C30.8843164,31.61 30.9123164,31.577 30.9423164,31.545 L31.0223164,31.467 C31.0843164,31.402 31.1253164,31.353 31.1663164,31.298 C31.1623164,31.298 31.1823164,31.261 31.2193164,31.211 L31.3253164,31.023 L31.3243164,31.023 C31.3203164,31.023 31.3303164,30.996 31.3513164,30.955 C31.3673164,30.917 31.3823164,30.877 31.3933164,30.838 C31.4213164,30.76 31.4273164,30.727 31.4323164,30.693 L31.4693164,30.534 L34.3633164,12.005 C34.5063164,11.063 33.8513164,10.171 32.9063164,10.021" id="Fill-1" fill="#097C86"></path>
        <g id="Group-5">
            <mask id="mask-2" fill="white">
                <use xlink:href="#path-1"></use>
            </mask>
            <g id="Clip-4"></g>
            <path d="M55.9844,28.7764 L55.9454,27.8184 C55.3154,12.7764 43.0424,0.9944 28.0034,0.9944 C12.5624,0.9944 0.0004,13.5564 0.0004,28.9974 C0.0004,44.4384 12.5624,57.0004 28.0034,57.0004 C36.1344,57.0004 43.8374,53.4664 49.1704,47.2974 L46.8114,44.9424 C42.0994,50.5044 35.2604,53.6884 28.0034,53.6884 C14.3874,53.6884 3.3104,42.6124 3.3104,28.9974 C3.3104,15.3834 14.3874,4.3084 28.0034,4.3084 C41.1364,4.3084 51.9564,14.5944 52.6324,27.7254 L52.6874,28.7764 L48.1344,28.7764 C47.3494,28.7764 47.1524,28.9734 47.1514,28.9754 C47.1724,28.9754 47.2584,29.2864 47.7304,29.7644 L54.6044,37.2644 L61.4124,29.7874 C61.8414,29.3544 61.9724,29.0634 61.9964,28.9514 C61.9054,28.8934 61.6184,28.7764 61.0404,28.7764 L55.9844,28.7764 Z" id="Fill-3" fill="#002F43" mask="url(#mask-2)"></path>
        </g>
    </g>
</svg>