<?xml version="1.0" encoding="UTF-8"?>
<svg width="10px" height="10px" viewBox="0 0 10 10" version="1.1" xmlns="http://www.w3.org/2000/svg" xmlns:xlink="http://www.w3.org/1999/xlink">
    <!-- Generator: Sketch 51.1 (57501) - http://www.bohemiancoding.com/sketch -->
    <title>icons/misc/externalLink</title>
    <desc>Created with Sketch.</desc>
    <defs></defs>
    <g id="icons/misc/externalLink" stroke="none" stroke-width="1" fill="none" fill-rule="evenodd">
        <path d="M7.85714286,5.60714286 L7.85714286,7.39285714 C7.85714286,7.83556769 7.69996437,8.21409813 7.38560268,8.52845982 C7.07124099,8.84282151 6.69271055,9 6.25,9 L1.60714286,9 C1.16443231,9 0.785901869,8.84282151 0.471540179,8.52845982 C0.157178488,8.21409813 0,7.83556769 0,7.39285714 L0,2.75 C0,2.30728945 0.157178488,1.92875901 0.471540179,1.61439732 C0.785901869,1.30003563 1.16443231,1.14285714 1.60714286,1.14285714 L5.53571429,1.14285714 C5.58779788,1.14285714 5.63058019,1.15959805 5.6640625,1.19308036 C5.69754481,1.22656267 5.71428571,1.26934498 5.71428571,1.32142857 L5.71428571,1.67857143 C5.71428571,1.73065502 5.69754481,1.77343733 5.6640625,1.80691964 C5.63058019,1.84040195 5.58779788,1.85714286 5.53571429,1.85714286 L1.60714286,1.85714286 C1.36160592,1.85714286 1.15141456,1.94456758 0.9765625,2.11941964 C0.801710435,2.29427171 0.714285714,2.50446306 0.714285714,2.75 L0.714285714,7.39285714 C0.714285714,7.63839408 0.801710435,7.84858544 0.9765625,8.0234375 C1.15141456,8.19828956 1.36160592,8.28571429 1.60714286,8.28571429 L6.25,8.28571429 C6.49553694,8.28571429 6.70572829,8.19828956 6.88058036,8.0234375 C7.05543242,7.84858544 7.14285714,7.63839408 7.14285714,7.39285714 L7.14285714,5.60714286 C7.14285714,5.55505926 7.15959805,5.51227695 7.19308036,5.47879464 C7.22656267,5.44531233 7.26934498,5.42857143 7.32142857,5.42857143 L7.67857143,5.42857143 C7.73065502,5.42857143 7.77343733,5.44531233 7.80691964,5.47879464 C7.84040195,5.51227695 7.85714286,5.55505926 7.85714286,5.60714286 Z M10,0.785714286 L10,3.64285714 C10,3.73958382 9.96465809,3.82328834 9.89397321,3.89397321 C9.82328834,3.96465809 9.73958382,4 9.64285714,4 C9.54613047,4 9.46242595,3.96465809 9.39174107,3.89397321 L8.40959821,2.91183036 L4.77120536,6.55022321 C4.73400279,6.58742578 4.69122048,6.60602679 4.64285714,6.60602679 C4.59449381,6.60602679 4.5517115,6.58742578 4.51450893,6.55022321 L3.87834821,5.9140625 C3.84114565,5.87685993 3.82254464,5.83407762 3.82254464,5.78571429 C3.82254464,5.73735095 3.84114565,5.69456864 3.87834821,5.65736607 L7.51674107,2.01897321 L6.53459821,1.03683036 C6.46391334,0.96614548 6.42857143,0.88244096 6.42857143,0.785714286 C6.42857143,0.688987612 6.46391334,0.605283092 6.53459821,0.534598214 C6.60528309,0.463913337 6.68898761,0.428571429 6.78571429,0.428571429 L9.64285714,0.428571429 C9.73958382,0.428571429 9.82328834,0.463913337 9.89397321,0.534598214 C9.96465809,0.605283092 10,0.688987612 10,0.785714286 Z" id="" fill="#FFFFFF"></path>
    </g>
</svg>