<svg xmlns="http://www.w3.org/2000/svg" width="10" height="10" viewBox="0 0 10 10">
    <path fill="#045564" fill-rule="evenodd" d="M7.857 5.607v1.786c0 .443-.157.821-.471 1.135A1.548 1.548 0 0 1 6.25 9H1.607c-.443 0-.821-.157-1.135-.472A1.548 1.548 0 0 1 0 7.393V2.75c0-.443.157-.821.472-1.136a1.548 1.548 0 0 1 1.135-.471h3.929c.052 0 .095.017.128.05.034.034.05.076.05.128v.358a.174.174 0 0 1-.05.128.174.174 0 0 1-.128.05H1.607a.86.86 0 0 0-.63.262.86.86 0 0 0-.263.631v4.643a.86.86 0 0 0 .263.63.86.86 0 0 0 .63.263H6.25a.86.86 0 0 0 .63-.263.86.86 0 0 0 .263-.63V5.607c0-.052.017-.095.05-.128a.174.174 0 0 1 .128-.05h.358c.052 0 .094.016.128.05.033.033.05.076.05.128zM10 .786v2.857c0 .097-.035.18-.106.251A.343.343 0 0 1 9.643 4a.343.343 0 0 1-.251-.106l-.982-.982L4.77 6.55a.176.176 0 0 1-.256 0l-.637-.636a.176.176 0 0 1 0-.257L7.517 2.02l-.982-.982a.343.343 0 0 1-.106-.251c0-.097.035-.18.106-.251a.343.343 0 0 1 .25-.106h2.858c.097 0 .18.035.251.106.07.07.106.154.106.25z"/>
</svg>
