<svg width="24" height="20" xmlns="http://www.w3.org/2000/svg"><path d="M10.053 3.717c-1.71.874-2.992 1.871-3.848 2.993-.855 1.12-1.282 2.536-1.282 4.246.114-.038.304-.057.57-.057 1.216 0 2.251.37 3.107 1.112.855.74 1.282 1.757 1.282 3.049 0 1.444-.418 2.584-1.254 3.42-.836.836-1.881 1.254-3.135 1.254-1.786 0-3.125-.655-4.019-1.967-.893-1.31-1.339-3.144-1.339-5.5 0-2.698.665-5.073 1.995-7.125C3.46 3.09 5.493 1.399 8.229.069l1.824 3.648zm13.452 0c-1.71.874-2.992 1.871-3.848 2.993-.855 1.12-1.282 2.536-1.282 4.246.114-.038.304-.057.57-.057 1.216 0 2.251.37 3.107 1.112.855.74 1.282 1.757 1.282 3.049 0 1.444-.418 2.584-1.254 3.42-.836.836-1.881 1.254-3.135 1.254-1.786 0-3.125-.655-4.018-1.967-.894-1.31-1.34-3.144-1.34-5.5 0-2.698.665-5.073 1.995-7.125 1.33-2.052 3.363-3.743 6.099-5.073l1.824 3.648z" fill="#DB1B3B" fill-rule="evenodd"/></svg>