<svg xmlns="http://www.w3.org/2000/svg" xmlns:xlink="http://www.w3.org/1999/xlink" width="50" height="61" viewBox="0 0 50 61">
    <defs>
        <path id="a" d="M0 60.5h49.027V0H0z"/>
    </defs>
    <g fill="none" fill-rule="evenodd">
        <path fill="#097C86" d="M20.618 16.41v7.694h7.693c-.587 3.02-3.252 5.31-6.44 5.31a6.569 6.569 0 0 1-6.563-6.561c0-3.191 2.29-5.856 5.31-6.442m1.252 15.506c4.998 0 9.064-4.067 9.064-9.065V21.6h-7.813v-7.814h-1.25c-4.999 0-9.066 4.067-9.066 9.065 0 4.998 4.066 9.065 9.065 9.065"/>
        <mask id="b" fill="#fff">
            <use xlink:href="#a"/>
        </mask>
        <path fill="#097C86" d="M12.257 39.557H37.2v-2.503H12.257zM7.144 39.557h2.611v-2.503H7.144zM7.144 45.868h2.611v-2.503H7.144zM12.257 45.868H37.2v-2.503H12.257z" mask="url(#b)"/>
        <path fill="#002F43" d="M7.686 57.497v-1.68h36.658V14.619l1.68 1.679v41.199H7.686zm33.656-45.784v41.102H3.004V3.004h29.629v8.709h8.709zm-6.21-2.5v-3.83l3.829 3.83h-3.828zM33.974 0H0v55.817h4.684V60.5h44.343V15.054L33.975 0z" mask="url(#b)"/>
    </g>
</svg>
