<?xml version="1.0" encoding="UTF-8"?>
<svg width="58px" height="58px" viewBox="0 0 58 58" version="1.1" xmlns="http://www.w3.org/2000/svg" xmlns:xlink="http://www.w3.org/1999/xlink">
    <!-- Generator: Sketch 51 (57462) - http://www.bohemiancoding.com/sketch -->
    <title>icons / service / devops</title>
    <desc>Created with Sketch.</desc>
    <defs>
        <polygon id="path-1" points="0.0001 0.09 35.76785 0.09 35.76785 30.7479 0.0001 30.7479"></polygon>
    </defs>
    <g id="icons-/-service-/-devops" stroke="none" stroke-width="1" fill="none" fill-rule="evenodd">
        <g id="Group-3" transform="translate(0.000000, -0.089900)">
            <mask id="mask-2" fill="white">
                <use xlink:href="#path-1"></use>
            </mask>
            <g id="Clip-2"></g>
            <path d="M15.3291,27.3419 C8.7451,27.3419 3.4061,22.0039 3.4061,15.4189 C3.4061,8.8349 8.7451,3.4959 15.3291,3.4959 C21.9141,3.4959 27.2521,8.8349 27.2521,15.4189 L27.2521,18.1199 L25.0501,15.9179 C24.3851,15.2529 23.3061,15.2529 22.6411,15.9179 C21.9751,16.5829 21.9751,17.6619 22.6411,18.3269 L27.7511,23.4369 C28.4161,24.1019 29.4941,24.1019 30.1591,23.4369 L35.2691,18.3269 C35.9341,17.6619 35.9341,16.5829 35.2691,15.9179 C34.6041,15.2529 33.5251,15.2529 32.8601,15.9179 L30.6581,18.1199 L30.6581,15.4189 C30.6581,6.9529 23.7951,0.0899 15.3291,0.0899 C6.8631,0.0899 0.0001,6.9529 0.0001,15.4189 C0.0001,23.8849 6.8631,30.7479 15.3291,30.7479 L27.7461,30.7479 L31.0671,27.3419 L15.3291,27.3419 Z" id="Fill-1" fill="#002F43" mask="url(#mask-2)"></path>
        </g>
        <path d="M54.5039,42.5811 C54.5039,49.1651 49.1659,54.5041 42.5809,54.5041 C35.9959,54.5041 30.6579,49.1651 30.6579,42.5811 L30.6579,37.4711 C30.6579,36.5311 29.8959,35.7681 28.9549,35.7681 C28.0149,35.7681 27.2519,36.5311 27.2519,37.4711 L27.2519,42.5811 C27.2519,51.0471 34.1149,57.9101 42.5809,57.9101 C51.0469,57.9101 57.9099,51.0471 57.9099,42.5811 C57.9099,34.1151 51.0469,27.2521 42.5809,27.2521 L31.0669,27.2521 L27.7469,30.6581 L42.5809,30.6581 C49.1659,30.6581 54.5039,35.9961 54.5039,42.5811" id="Fill-4" fill="#097C86"></path>
    </g>
</svg>