<?xml version="1.0" encoding="UTF-8"?>
<svg width="59px" height="71px" viewBox="0 0 59 71" version="1.1" xmlns="http://www.w3.org/2000/svg" xmlns:xlink="http://www.w3.org/1999/xlink">
    <!-- Generator: Sketch 51 (57462) - http://www.bohemiancoding.com/sketch -->
    <title>icons / service / drupal</title>
    <desc>Created with Sketch.</desc>
    <defs>
        <polygon id="path-1" points="0.0002 0.1062 58.173 0.1062 58.173 70 0.0002 70"></polygon>
    </defs>
    <g id="icons-/-service-/-drupal" stroke="none" stroke-width="1" fill="none" fill-rule="evenodd">
        <g id="Group-6">
            <path d="M40.8166,50.0247 C42.2406,50.7597 43.5246,52.1437 44.7786,53.4967 C45.8466,54.6497 47.3096,56.2277 48.0966,56.2887 C48.4896,56.3157 48.9236,56.1027 49.3886,55.6477 C50.9566,54.1127 52.2036,50.4497 52.0566,47.8087 C51.9616,46.0777 51.0736,44.8107 50.0216,44.8167 C48.6866,44.8487 46.9026,46.1327 45.1786,47.3757 C43.7586,48.3987 42.3066,49.4437 40.8166,50.0247 M23.7336,43.8787 C21.5816,43.8787 19.4656,44.7637 17.9016,46.3237 C16.4656,47.7567 15.6626,49.5647 15.6986,51.2817 C15.7456,53.4747 16.4096,56.3987 21.6076,56.4747 C25.0646,56.5497 28.5166,54.4157 31.5546,52.5527 C33.2776,51.4967 34.8486,50.5337 36.3436,49.9797 C35.1606,49.4647 34.0156,48.6207 32.8286,47.7447 C30.4306,45.9757 27.7126,43.9707 23.9176,43.8807 C23.8566,43.8797 23.7946,43.8787 23.7336,43.8787 M21.7366,59.4757 C21.6786,59.4757 21.6216,59.4757 21.5636,59.4747 C15.9576,59.3917 12.8096,56.5047 12.6996,51.3457 C12.6456,48.8137 13.7696,46.2097 15.7826,44.1997 C17.9676,42.0197 20.9596,40.8087 23.9876,40.8817 C28.7306,40.9937 31.9906,43.3987 34.6096,45.3307 C36.1716,46.4827 37.5206,47.4787 38.5626,47.4847 C39.8816,47.4667 41.6826,46.1957 43.4246,44.9417 C45.5206,43.4317 47.6866,41.8717 49.9496,41.8167 C52.7376,41.7597 54.8616,44.2017 55.0516,47.6427 C55.2206,50.6797 53.9056,55.4237 51.4876,57.7917 C50.1036,59.1457 48.7506,59.3447 47.8656,59.2797 C45.9076,59.1287 44.2906,57.3837 42.5786,55.5367 C41.3186,54.1777 39.7536,52.4887 38.7656,52.4887 C38.7606,52.4887 38.7556,52.4887 38.7506,52.4887 C37.3606,52.5127 35.3026,53.7747 33.1226,55.1107 C29.7826,57.1587 26.0016,59.4757 21.7366,59.4757" id="Fill-1" fill="#097C86"></path>
            <g id="Group-5" transform="translate(0.000000, 0.893600)">
                <mask id="mask-2" fill="white">
                    <use xlink:href="#path-1"></use>
                </mask>
                <g id="Clip-4"></g>
                <path d="M24.8122,0.1062 L24.0722,7.1492 C23.9262,8.5412 23.7892,9.8552 23.2242,10.4932 C21.3192,12.6422 18.7042,14.0292 15.9652,15.3772 C8.2472,19.1762 0.0002,27.9392 0.0002,41.1392 C0.0002,47.9912 2.6652,54.9572 7.3122,60.2512 C12.8322,66.5382 20.5172,70.0002 28.9532,70.0002 L29.1012,70.0002 C36.6872,69.9622 43.4772,67.5422 48.7372,62.9982 C54.9102,57.6672 58.1732,50.1082 58.1732,41.1392 C58.1732,34.3402 56.1342,28.2552 52.2762,23.5432 C46.7092,16.7432 41.9142,14.6842 38.4122,13.1812 C37.4882,12.7842 36.6892,12.4412 36.0512,12.0772 C34.0962,10.9612 32.1162,8.8352 29.3572,5.5382 L24.8122,0.1062 Z M27.0562,7.4632 C29.9002,10.8622 32.1392,13.2992 34.5642,14.6832 C37.9542,16.6162 43.3132,17.3322 49.9552,25.4442 C53.3232,29.5582 55.1732,34.9352 55.1732,41.1392 C55.1732,49.5612 52.0142,56.2052 46.7762,60.7282 C42.2982,64.5962 36.3412,66.9642 29.0862,67.0002 L28.9532,67.0002 C20.8962,67.0002 14.1102,63.4472 9.5672,58.2712 C5.2752,53.3822 3.0002,47.0362 3.0002,41.1392 C3.0002,28.9632 10.6442,21.3402 17.2912,18.0692 C19.9032,16.7832 23.1082,15.1472 25.4692,12.4822 C26.6672,11.1302 26.8632,9.3002 27.0562,7.4632 Z" id="Fill-3" fill="#002F43" mask="url(#mask-2)"></path>
            </g>
        </g>
    </g>
</svg>