<svg xmlns="http://www.w3.org/2000/svg" width="67" height="39" viewBox="0 0 67 39">
    <g fill="none" fill-rule="evenodd">
        <path fill="#002F43" d="M33.496 3a6.125 6.125 0 0 0-6.118 6.118 6.124 6.124 0 0 0 6.118 6.118 6.124 6.124 0 0 0 6.118-6.118A6.125 6.125 0 0 0 33.496 3m0 15.236c-5.027 0-9.118-4.09-9.118-9.118C24.378 4.09 28.47 0 33.496 0s9.118 4.09 9.118 9.118c0 5.028-4.09 9.118-9.118 9.118M18.998 35.806h28.996v-4.473c0-3.834-2.835-7.088-6.56-7.667a12.082 12.082 0 0 1-7.938 2.95c-2.938 0-5.73-1.042-7.937-2.95-3.726.579-6.561 3.833-6.561 7.667v4.473zm31.996 3H15.998v-7.473c0-5.608 4.375-10.32 9.961-10.73l.672-.048.483.469a9.107 9.107 0 0 0 6.382 2.593 9.105 9.105 0 0 0 6.382-2.593l.483-.47.672.05c5.586.409 9.961 5.12 9.961 10.729v7.473z"/>
        <path fill="#097C86" d="M53.303 7.571a4.6 4.6 0 0 0-4.595 4.594 4.6 4.6 0 0 0 4.595 4.595 4.6 4.6 0 0 0 4.595-4.595 4.6 4.6 0 0 0-4.595-4.594m0 12.19c-4.187 0-7.595-3.408-7.595-7.596 0-4.187 3.408-7.594 7.595-7.594 4.187 0 7.595 3.407 7.595 7.594 0 4.188-3.408 7.595-7.595 7.595M67 35.758H53.295v-3H64v-3.07a4.601 4.601 0 0 0-4.595-4.596h-.151c-1.637 1.518-3.632 2.287-5.943 2.287v-3c1.702 0 3.085-.593 4.231-1.813l.444-.474h1.419c4.188 0 7.595 3.407 7.595 7.595v6.071zM13.696 7.571a4.6 4.6 0 0 0-4.595 4.594 4.6 4.6 0 0 0 4.595 4.595 4.6 4.6 0 0 0 4.595-4.595 4.6 4.6 0 0 0-4.595-4.594m0 12.19c-4.187 0-7.595-3.408-7.595-7.596 0-4.187 3.408-7.594 7.595-7.594 4.187 0 7.595 3.407 7.595 7.594 0 4.188-3.408 7.595-7.595 7.595M13.705 35.758H0v-6.07c0-4.189 3.398-7.596 7.576-7.596h1.405l.444.467c1.164 1.224 2.558 1.82 4.263 1.82v3c-2.309 0-4.312-.769-5.963-2.287h-.149C5.053 25.092 3 27.154 3 29.687v3.071h10.705v3z"/>
    </g>
</svg>
