<svg xmlns="http://www.w3.org/2000/svg" xmlns:xlink="http://www.w3.org/1999/xlink" width="54" height="64" viewBox="0 0 54 64">
    <defs>
        <path id="a" d="M0 .25h53.477V63H0z"/>
    </defs>
    <g fill="none" fill-rule="evenodd">
        <g transform="translate(0 .75)">
            <mask id="b" fill="#fff">
                <use xlink:href="#a"/>
            </mask>
            <path fill="#002F43" d="M51.009 41.157c0 .57-.43.998-1 .998H3.64a.977.977 0 0 1-1-.998v-.344c0-.569.43-.999 1-.999h46.37c.57 0 1 .43 1 1v.343zm-2.92 8.412c-.078 9.097-6.502 10.877-17.572 10.877h-7.213c-10.796 0-17.487-1.819-17.487-10.874v-4.949h42.272v4.946zM5.73 23.896c0-11.678 9.5-21.179 21.179-21.179 11.678 0 21.179 9.501 21.179 21.18v13.45H5.73v-13.45zm44.654 13.471v-13.47C50.385 10.856 39.778.25 26.738.25S3.092 10.857 3.092 23.896v13.471A3.47 3.47 0 0 0 0 40.813l.002.381c.179 1.787 1.553 3.225 3.262 3.48v4.984C3.264 61.415 13.35 63 23.218 63h7.213c9.867 0 19.954-1.585 19.954-13.342v-4.97a3.47 3.47 0 0 0 3.092-3.446v-.429a3.47 3.47 0 0 0-3.092-3.446z" mask="url(#b)"/>
        </g>
        <path fill="#097C86" d="M16.85 24.735c-.562-.695-1.157-1.634-1.157-2.665 0-1.025.54-1.979 1.088-2.679.563.7 1.167 1.647 1.168 2.704.064.968-.558 1.922-1.1 2.64m-5.38 7.812c-1.214-1.29-1.471-3.249-1.52-4.23 1.02.095 2.969.397 4.159 1.661 1.27 1.271 1.46 3.445 1.516 4.223-1.018-.095-2.97-.395-4.155-1.654m8.314-2.56c1.289-1.215 3.248-1.472 4.23-1.52-.095 1.02-.396 2.967-1.653 4.15-1.29 1.214-3.248 1.47-4.231 1.518.096-1.02.397-2.966 1.654-4.149m4.296 4.376c2.398-2.317 2.469-6.09 2.433-7.226 0-.632-.515-1.147-1.197-1.15-1.405-.086-4.912-.05-7.218 2.136v-1.176c.946-.974 2.404-2.834 2.404-5.048 0-3.049-2.705-5.362-2.898-5.452-.474-.357-1.09-.358-1.623.05-.647.594-2.755 2.743-2.755 5.402 0 2.496 1.857 4.451 2.404 4.973v1.252c-2.33-2.188-5.913-2.253-7.01-2.22-.632 0-1.147.515-1.15 1.197-.087 1.416-.05 4.958 2.167 7.251 1.299 1.36 3.336 2.19 5.907 2.408v1.337h2.554v-1.488c1.592-.049 4.174-.437 5.982-2.246M36.687 24.735c-.563-.696-1.158-1.636-1.158-2.665 0-1.023.54-1.978 1.087-2.679.565.698 1.169 1.646 1.17 2.704.063.968-.559 1.922-1.1 2.64m-5.38 7.812c-1.215-1.29-1.472-3.249-1.52-4.23 1.02.095 2.968.397 4.157 1.661 1.273 1.272 1.462 3.445 1.518 4.223-1.018-.095-2.97-.395-4.155-1.654m8.312-2.56c1.29-1.215 3.248-1.472 4.23-1.52-.094 1.02-.395 2.968-1.651 4.15-1.29 1.214-3.25 1.47-4.232 1.518.094-1.019.394-2.964 1.653-4.149m4.297 4.376c2.398-2.317 2.47-6.09 2.434-7.226 0-.632-.515-1.147-1.197-1.15-1.41-.089-4.918-.05-7.218 2.136v-1.176c.946-.974 2.404-2.834 2.404-5.048 0-3.049-2.706-5.362-2.898-5.452-.476-.357-1.09-.356-1.623.05-.647.594-2.755 2.743-2.755 5.402 0 2.5 1.857 4.451 2.404 4.973v1.253c-2.328-2.19-5.91-2.254-7.01-2.22-.633 0-1.148.514-1.151 1.196-.087 1.416-.049 4.958 2.168 7.251 1.297 1.36 3.334 2.19 5.907 2.408v1.337h2.553v-1.488c1.593-.049 4.173-.437 5.983-2.246"/>
    </g>
</svg>
