<?xml version="1.0" encoding="UTF-8"?>
<svg width="53px" height="56px" viewBox="0 0 53 56" version="1.1" xmlns="http://www.w3.org/2000/svg" xmlns:xlink="http://www.w3.org/1999/xlink">
    <!-- Generator: Sketch 51 (57462) - http://www.bohemiancoding.com/sketch -->
    <title>icons / service / innovation lab</title>
    <desc>Created with Sketch.</desc>
    <defs>
        <polygon id="path-1" points="0 0.392193262 21.7307466 0.392193262 21.7307466 24.9994012 0 24.9994012"></polygon>
    </defs>
    <g id="icons-/-service-/-innovation-lab" stroke="none" stroke-width="1" fill="none" fill-rule="evenodd">
        <g id="Group-3" transform="translate(0.000000, 30.800300)">
            <mask id="mask-2" fill="white">
                <use xlink:href="#path-1"></use>
            </mask>
            <g id="Clip-2"></g>
            <path d="M19.3377,7.3014 C18.8097,6.7234 17.9127,6.6834 17.3347,7.2124 C16.7907,7.7094 16.7187,8.5394 17.1687,9.1234 C18.1187,10.2624 20.0837,13.1724 17.8397,15.9564 C16.7707,17.2154 15.2537,18.0084 13.6087,18.1664 C10.1637,18.5424 5.7217,19.4424 3.1137,21.5834 C2.1747,17.2154 3.5467,13.6114 7.2937,10.6154 C7.9027,10.1234 7.9987,9.2314 7.5067,8.6214 C7.3547,8.4324 7.1547,8.2854 6.9297,8.1964 C5.7677,7.7754 4.5367,7.5814 3.3017,7.6254 C4.1787,5.9574 5.6767,3.9304 7.7377,3.3614 C9.2807,2.9504 11.0467,3.4634 12.9827,4.8754 C13.6547,5.2774 14.5257,5.0584 14.9277,4.3864 C15.2767,3.8014 15.1607,3.0504 14.6507,2.5974 C11.9917,0.6504 9.4237,-0.0106 7.0257,0.6274 C3.3477,1.5954 1.1667,5.3604 0.1927,7.5184 C-0.3003,8.6104 0.1847,9.8954 1.2767,10.3884 C1.6847,10.5724 2.1397,10.6254 2.5787,10.5414 C2.8287,10.4944 3.0817,10.4644 3.3367,10.4504 C0.8077,13.3254 -1.0483,17.5694 0.6707,23.4284 C0.9337,24.3594 1.7827,25.0004 2.7497,24.9994 L2.8177,24.9994 C3.4227,24.9824 3.9937,24.7114 4.3897,24.2544 C5.7677,22.6884 9.2417,21.4974 13.9217,20.9854 C16.3127,20.7534 18.5147,19.5864 20.0497,17.7394 C21.5807,15.9434 22.1087,13.4984 21.4567,11.2314 C21.0347,9.7864 20.3127,8.4474 19.3377,7.3014" id="Fill-1" fill="#097C86" mask="url(#mask-2)"></path>
        </g>
        <path d="M37.3494,20.6817 C35.8994,22.1317 33.5484,22.1317 32.0994,20.6817 C30.6494,19.2317 30.6494,16.8807 32.0994,15.4307 C33.5494,13.9817 35.9004,13.9817 37.3494,15.4317 C38.0464,16.1277 38.4374,17.0727 38.4374,18.0567 C38.4374,19.0427 38.0464,19.9907 37.3494,20.6877 L37.3494,20.6817 Z M34.7244,11.5137 C31.1104,11.5137 28.1814,14.4437 28.1824,18.0577 C28.1824,21.6707 31.1114,24.6007 34.7254,24.5997 C38.3384,24.5997 41.2674,21.6697 41.2674,18.0567 C41.2674,16.3227 40.5794,14.6607 39.3534,13.4327 C38.1294,12.2007 36.4624,11.5097 34.7244,11.5137 Z" id="Fill-4" fill="#097C86"></path>
        <path d="M45.0657,21.9747 C43.5707,24.6207 41.6907,27.0297 39.4847,29.1207 L39.4277,29.1727 C39.1837,29.4047 39.0307,29.7147 38.9957,30.0497 C38.9877,30.1327 38.9877,30.2167 38.9957,30.2997 L39.1317,32.9367 C39.2097,34.4707 38.6347,35.9667 37.5487,37.0537 L34.4397,40.1627 L32.2587,34.9017 C31.9637,34.1867 31.1487,33.8407 30.4307,34.1267 C28.6147,34.8437 26.7447,35.4147 24.8387,35.8347 L24.4517,35.9207 L16.8667,28.3357 L16.9517,27.9487 C17.3727,26.0437 17.9437,24.1757 18.6597,22.3627 C18.9427,21.6437 18.5987,20.8307 17.8857,20.5347 L12.6237,18.3527 L15.7327,15.2447 C16.8217,14.1577 18.3197,13.5817 19.8567,13.6617 L22.5157,13.7977 C22.9507,13.8167 23.3707,13.6337 23.6537,13.3017 C25.7147,11.1207 28.0917,9.2607 30.7037,7.7847 C36.5347,4.3877 43.1937,2.6757 49.9407,2.8407 C50.1067,9.5457 48.4197,16.1667 45.0657,21.9747 M51.3807,0.0687 C43.6567,-0.3863 35.9697,1.4457 29.2807,5.3347 C26.6157,6.8687 24.1667,8.7487 21.9977,10.9277 L19.9987,10.8137 C17.6637,10.6957 15.3887,11.5707 13.7337,13.2227 L9.5837,17.3737 C8.8607,18.0927 8.8587,19.2607 9.5787,19.9827 C9.7507,20.1557 9.9557,20.2927 10.1807,20.3857 L15.5677,22.6237 C15.0057,24.1617 14.5427,25.7327 14.1787,27.3277 L13.9277,28.4667 C13.8247,28.9377 13.9687,29.4287 14.3097,29.7707 L22.9707,38.4717 C23.3127,38.8127 23.8037,38.9557 24.2747,38.8537 L25.4137,38.6027 C27.0147,38.2487 28.5907,37.7947 30.1347,37.2427 L32.3607,42.6067 C32.7607,43.5427 33.8447,43.9787 34.7827,43.5787 C35.0037,43.4847 35.2047,43.3467 35.3737,43.1757 L39.5247,39.0247 C41.1767,37.3707 42.0517,35.0947 41.9337,32.7597 L41.8317,30.7617 C44.0197,28.6027 45.9117,26.1627 47.4577,23.5067 C51.3447,16.8177 53.1747,9.1297 52.7187,1.4067 C52.6797,0.6837 52.1027,0.1077 51.3807,0.0687" id="Fill-6" fill="#002F43"></path>
    </g>
</svg>