<svg xmlns="http://www.w3.org/2000/svg" xmlns:xlink="http://www.w3.org/1999/xlink" width="52" height="62" viewBox="0 0 52 62">
    <defs>
        <path id="a" d="M.027.5h45.864v45.864H.027z"/>
        <path id="c" d="M0 .786h49.603V59H0z"/>
    </defs>
    <g fill="none" fill-rule="evenodd">
        <g transform="translate(6 .5)">
            <mask id="b" fill="#fff">
                <use xlink:href="#a"/>
            </mask>
            <path fill="#002F43" d="M5.996 28.802c.173-.37.436-.67.776-.885a2.008 2.008 0 0 1 1.054-.308c.606.009 1.08.229 1.502.702l.046.044c.1.112.198.217.31.316l.047.039c.11.1.23.196.353.287l.044.03c.082.06.171.117.287.19l.214.125c.11.062.218.115.34.172a4.94 4.94 0 0 0 1.974.42h1.616a2.007 2.007 0 0 1 2.01 2.005c0 .069.001.134-.01.213l-.202 2.029a4.903 4.903 0 0 1-2.348 3.687l-2.96 1.767c-2.77-2.076-4.973-4.796-6.384-7.881l1.331-2.952zm10.756-14.315l1.118-2.144a1.23 1.23 0 0 1 .474-.498 1.27 1.27 0 0 1 1.355.049l1.604 1.114c.346.238.545.616.545 1.035 0 .287-.095.559-.273.783a3.995 3.995 0 0 0-.892 2.535c0 .713.186 1.417.54 2.034a4.096 4.096 0 0 0 1.573 1.537l2.678 1.459c.328.178.557.489.63.855l1.251 6.26c.19.959.712 1.814 1.471 2.404a4.058 4.058 0 0 0 2.55.867 4 4 0 0 0 2.705-1.064l4.292-3.924a4.07 4.07 0 0 0 1.322-3c0-.124 0-.247-.012-.368l-.397-4.351-.007-.12c0-.426.217-.823.578-1.06l2.3-1.484c.615 1.953.927 3.973.927 6.012 0 5.367-2.099 10.422-5.905 14.235-3.807 3.806-8.852 5.903-14.206 5.903a20.2 20.2 0 0 1-9.252-2.25l1.724-1.03a7.69 7.69 0 0 0 3.704-5.815l.201-2.027a4.81 4.81 0 0 0-1.374-3.891 4.847 4.847 0 0 0-3.419-1.418h-1.616a2.024 2.024 0 0 1-1.525-.693A4.763 4.763 0 0 0 7.85 24.8h-.022a4.86 4.86 0 0 0-2.542.736 4.902 4.902 0 0 0-1.843 2.099l-.107.238c-.332-1.45-.5-2.946-.5-4.456 0-3.641.986-7.193 2.858-10.306l.135.515a4.07 4.07 0 0 0 3.934 3.043h3.386a4.054 4.054 0 0 0 3.603-2.182zm21.582 2.045a4.058 4.058 0 0 0-1.844 3.78l.392 4.35.006.128c0 .355-.147.69-.404.924L32.19 29.64a1.216 1.216 0 0 1-.84.329 1.229 1.229 0 0 1-.79-.27 1.199 1.199 0 0 1-.45-.741l-1.247-6.26a4.083 4.083 0 0 0-2.04-2.772l-2.676-1.458a1.237 1.237 0 0 1-.487-.472 1.28 1.28 0 0 1-.169-.636c0-.287.093-.55.276-.78a4.107 4.107 0 0 0 .89-2.538 4.074 4.074 0 0 0-1.752-3.344l-1.608-1.113a4.002 4.002 0 0 0-2.307-.725 4.076 4.076 0 0 0-3.607 2.18l-1.12 2.144a1.245 1.245 0 0 1-1.11.678H9.764a1.259 1.259 0 0 1-1.218-.944l-.71-2.735c.311-.362.608-.683.902-.977 3.81-3.803 8.864-5.898 14.235-5.898 5.352 0 10.397 2.095 14.206 5.898a20.23 20.23 0 0 1 3.924 5.536l-2.77 1.79zM1.5 31.444l.1.292a23.169 23.169 0 0 0 8.527 10.705l.057.05a22.898 22.898 0 0 0 12.791 3.873c12.63-.006 22.911-10.3 22.917-22.946C45.885 10.787 35.604.507 22.974.5 10.321.5.027 10.78.027 23.418c0 2.819.501 5.535 1.472 8.026z" mask="url(#b)"/>
        </g>
        <g transform="translate(0 2.5)">
            <mask id="d" fill="#fff">
                <use xlink:href="#c"/>
            </mask>
            <path fill="#097C86" d="M47.441 39.913c-4.944 4.946-11.503 7.671-18.466 7.671a26.141 26.141 0 0 1-14.58-4.414c-4.419-3.039-7.779-7.218-9.7-12.028l-.103-.3c-1.184-2.943-1.785-6.116-1.786-9.433.001-6.96 2.726-13.517 7.671-18.46l.177-.177L8.67.786l-.176.177C3.015 6.434 0 13.695 0 21.41c0 3.583.64 7.033 1.886 10.215l.096.292c2.133 5.475 5.877 10.167 10.843 13.58a28.964 28.964 0 0 0 14.73 4.858v5.837H14.356v2.81H43.56v-2.809H30.361v-5.84a28.8 28.8 0 0 0 19.065-8.455l.177-.176-1.985-1.985-.177.177z" mask="url(#d)"/>
        </g>
    </g>
</svg>
