<?xml version="1.0" encoding="UTF-8"?>
<svg width="61px" height="62px" viewBox="0 0 61 62" version="1.1" xmlns="http://www.w3.org/2000/svg" xmlns:xlink="http://www.w3.org/1999/xlink">
    <!-- Generator: Sketch 51 (57462) - http://www.bohemiancoding.com/sketch -->
    <title>icons / service / qa</title>
    <desc>Created with Sketch.</desc>
    <defs>
        <polygon id="path-1" points="0 0.4983 60.4998 0.4983 60.4998 61 0 61"></polygon>
    </defs>
    <g id="icons-/-service-/-qa" stroke="none" stroke-width="1" fill="none" fill-rule="evenodd">
        <g id="Group-8">
            <path d="M28.8848,37.2315 C29.1568,37.4585 29.4918,37.5785 29.8408,37.5785 C29.8888,37.5785 29.9378,37.5765 29.9878,37.5715 C30.3828,37.5345 30.7548,37.3355 31.0068,37.0255 L39.4078,26.6965 C39.9278,26.0545 39.8298,25.1105 39.1898,24.5895 L39.1888,24.5895 C38.5468,24.0695 37.6028,24.1685 37.0828,24.8075 L29.6388,33.9605 L24.8798,29.9905 C24.5718,29.7345 24.1818,29.6165 23.7848,29.6495 C23.3858,29.6855 23.0258,29.8745 22.7698,30.1815 C22.5128,30.4895 22.3918,30.8775 22.4278,31.2765 C22.4648,31.6745 22.6538,32.0355 22.9608,32.2915 L28.8848,37.2315 Z" id="Fill-1" fill="#002F43"></path>
            <path d="M11.0415,31.3409 C11.0415,20.6989 19.6995,12.0409 30.3415,12.0409 C40.9835,12.0409 49.6415,20.6989 49.6415,31.3409 C49.6415,41.9839 40.9835,50.6419 30.3415,50.6419 C19.6995,50.6419 11.0415,41.9839 11.0415,31.3409 M30.3415,53.6369 C42.6355,53.6369 52.6375,43.6349 52.6375,31.3409 C52.6375,19.0469 42.6355,9.0449 30.3415,9.0449 C18.0475,9.0449 8.0455,19.0469 8.0455,31.3409 C8.0455,43.6349 18.0475,53.6369 30.3415,53.6369" id="Fill-3" fill="#097C86"></path>
            <g id="Group-7" transform="translate(0.000000, 0.502000)">
                <mask id="mask-2" fill="white">
                    <use xlink:href="#path-1"></use>
                </mask>
                <g id="Clip-6"></g>
                <path d="M3.1738,40.1953 L4.5118,34.4933 C4.7318,33.5433 4.8498,32.3463 4.8528,31.0333 C4.8498,29.6273 4.7168,28.3443 4.4678,27.3223 L3.0588,21.6343 C3.0148,21.4573 2.9928,21.2613 2.9928,21.0543 C2.9908,20.5343 3.1418,19.9463 3.4088,19.4393 C3.6648,18.9433 4.0348,18.5223 4.4238,18.2843 L9.4028,15.1963 C10.2658,14.6593 11.2268,13.8643 12.1808,12.9003 C13.1318,11.9353 13.9128,10.9653 14.4408,10.0933 L17.4668,5.0773 C17.7028,4.6833 18.1258,4.3043 18.6288,4.0403 C19.1348,3.7693 19.7238,3.6143 20.2468,3.6143 C20.4318,3.6063 20.6308,3.6333 20.7998,3.6743 L26.5038,5.0103 C27.4558,5.2313 28.6518,5.3493 29.9638,5.3513 C31.3658,5.3493 32.6498,5.2163 33.6758,4.9663 L39.3628,3.5573 C39.5398,3.5133 39.7348,3.4913 39.9418,3.4913 L39.9458,3.4913 C40.4678,3.4913 41.0548,3.6423 41.5568,3.9063 C42.0548,4.1653 42.4758,4.5353 42.7128,4.9233 L45.8008,9.8993 C46.3408,10.7663 47.1338,11.7273 48.0958,12.6773 C49.0638,13.6313 50.0338,14.4133 50.9028,14.9393 L55.9188,17.9663 C56.3138,18.2013 56.6908,18.6243 56.9558,19.1273 C57.2288,19.6353 57.3838,20.2283 57.3818,20.7563 C57.3828,20.9323 57.3648,21.1043 57.3308,21.2673 L55.9858,27.0033 C55.7628,27.9643 55.6448,29.1603 55.6438,30.4633 C55.6468,31.8703 55.7798,33.1543 56.0308,34.1763 L57.4378,39.8613 C57.4818,40.0323 57.5038,40.2263 57.5038,40.4403 C57.5058,40.9623 57.3548,41.5503 57.0898,42.0553 L57.0898,42.0563 C56.8318,42.5523 56.4628,42.9733 56.0748,43.2123 L51.0968,46.2993 C50.2348,46.8363 49.2748,47.6303 48.3188,48.5953 C47.3658,49.5623 46.5848,50.5323 46.0578,51.4013 L43.0318,56.4183 C42.7968,56.8113 42.3738,57.1893 41.8698,57.4543 C41.3638,57.7253 40.7768,57.8813 40.2558,57.8813 C40.0508,57.8823 39.8678,57.8623 39.6968,57.8223 L33.9948,56.4853 C33.0428,56.2633 31.8458,56.1453 30.5328,56.1433 C29.1258,56.1453 27.8418,56.2793 26.8218,56.5293 L21.1338,57.9373 C20.9578,57.9813 20.7738,58.0153 20.5418,58.0033 C20.0258,58.0033 19.4428,57.8523 18.9398,57.5883 C18.4428,57.3303 18.0228,56.9613 17.7858,56.5743 L14.6978,51.5953 C14.1578,50.7293 13.3638,49.7693 12.4028,48.8183 C11.4368,47.8663 10.4658,47.0843 9.5958,46.5553 L4.5788,43.5293 C4.1848,43.2953 3.8068,42.8723 3.5408,42.3683 C3.2678,41.8583 3.1118,41.2653 3.1148,40.7393 C3.1138,40.5453 3.1338,40.3643 3.1738,40.1953 M60.3498,39.1573 L58.9398,33.4553 C58.7538,32.7153 58.6388,31.5683 58.6418,30.4643 C58.6398,29.4263 58.7378,28.3883 58.9028,27.6863 L60.2418,21.9813 C60.3318,21.5893 60.3788,21.1763 60.3798,20.7553 C60.3758,19.7253 60.1078,18.6763 59.6028,17.7233 C59.0758,16.7333 58.3378,15.9303 57.4658,15.4023 L52.4488,12.3753 C51.8068,11.9903 50.9668,11.3073 50.2018,10.5493 C49.4328,9.7923 48.7398,8.9613 48.3458,8.3233 L45.2588,3.3433 C44.7258,2.4893 43.9248,1.7663 42.9438,1.2543 C41.9978,0.7613 40.9598,0.5003 39.9418,0.4983 C39.4988,0.4983 39.0618,0.5493 38.6428,0.6533 L32.9578,2.0603 C32.2168,2.2443 31.0828,2.3583 29.9908,2.3583 L29.9648,2.3583 C28.9528,2.3743 27.8908,2.2613 27.1898,2.0963 L21.4868,0.7593 C21.0908,0.6673 20.6778,0.6203 20.2578,0.6203 C19.2308,0.6223 18.1828,0.8903 17.2268,1.3963 C16.2368,1.9233 15.4348,2.6623 14.9048,3.5343 L11.8788,8.5493 C11.4958,9.1893 10.8128,10.0303 10.0518,10.7993 C9.2958,11.5673 8.4648,12.2593 7.8268,12.6523 L2.8478,15.7403 C1.9928,16.2723 1.2698,17.0733 0.7558,18.0563 C0.2638,19.0013 0.0028,20.0393 -0.0002,21.0583 C0.0008,21.5083 0.0528,21.9453 0.1548,22.3583 L1.5628,28.0443 C1.7478,28.7893 1.8618,29.9343 1.8598,31.0353 C1.8618,32.0743 1.7638,33.1123 1.5988,33.8123 L0.2628,39.5073 C0.1708,39.8953 0.1228,40.3103 0.1218,40.7433 C0.1238,41.7713 0.3928,42.8203 0.8978,43.7753 C1.4258,44.7653 2.1648,45.5683 3.0358,46.0963 L8.0528,49.1223 C8.6948,49.5083 9.5348,50.1913 10.3008,50.9493 C11.0698,51.7083 11.7628,52.5403 12.1548,53.1753 L15.2418,58.1533 C15.7748,59.0083 16.5748,59.7313 17.5568,60.2443 C18.5028,60.7363 19.5408,60.9983 20.5598,61.0003 C21.0068,61.0003 21.4448,60.9483 21.8578,60.8453 L27.5458,59.4383 C28.2788,59.2543 29.4058,59.1403 30.4958,59.1403 L30.5668,59.1403 C31.5938,59.1403 32.6178,59.2383 33.3128,59.4023 L39.0148,60.7393 C39.4068,60.8313 39.8198,60.8783 40.2438,60.8783 C41.2708,60.8763 42.3198,60.6083 43.2768,60.1023 C44.2678,59.5733 45.0698,58.8343 45.5978,57.9653 L48.6238,52.9503 C49.0068,52.3093 49.6898,51.4683 50.4508,50.6993 C51.2058,49.9313 52.0368,49.2393 52.6758,48.8463 L57.6538,45.7583 C58.5068,45.2273 59.2298,44.4263 59.7458,43.4423 C60.2378,42.4963 60.4988,41.4583 60.4998,40.4403 C60.4998,40.0113 60.3558,39.1923 60.3498,39.1573" id="Fill-5" fill="#002F43" mask="url(#mask-2)"></path>
            </g>
        </g>
    </g>
</svg>