<svg xmlns="http://www.w3.org/2000/svg" xmlns:xlink="http://www.w3.org/1999/xlink" width="59" height="56" viewBox="0 0 59 56">
    <defs>
        <path id="a" d="M0 .012h59V55H0z"/>
    </defs>
    <g fill="none" fill-rule="evenodd">
        <path fill="#097C86" d="M32.465 15.299h-5.292c-.91 0-1.65.74-1.65 1.65 0 .912.74 1.653 1.65 1.653h5.292c.91 0 1.651-.741 1.651-1.652 0-.91-.74-1.651-1.65-1.651M32.465 23.663h-5.292c-.91 0-1.65.74-1.65 1.65 0 .912.74 1.653 1.65 1.653h5.292c.91 0 1.651-.741 1.651-1.652 0-.91-.74-1.651-1.65-1.651M12.619 19.78H8.608c-.91 0-1.651.741-1.651 1.651 0 .911.74 1.652 1.65 1.652h4.012c.91 0 1.65-.74 1.65-1.652 0-.91-.74-1.65-1.65-1.65M12.619 26.223H8.608c-.91 0-1.651.741-1.651 1.651 0 .911.74 1.652 1.65 1.652h4.012c.91 0 1.65-.74 1.65-1.652 0-.91-.74-1.65-1.65-1.65"/>
        <g transform="translate(0 .989)">
            <mask id="b" fill="#fff">
                <use xlink:href="#a"/>
            </mask>
            <path fill="#002F43" d="M55.697 49.763a1.937 1.937 0 0 1-1.935 1.934H40.747l.16-.625c.11-.427.167-.867.167-1.31V9.077h12.688c1.067 0 1.935.868 1.935 1.935v38.752zm-17.926 0a1.937 1.937 0 0 1-1.934 1.935l-12.675-.001a1.937 1.937 0 0 1-1.935-1.934V5.249c0-1.067.868-1.935 1.935-1.935h12.675c1.066 0 1.934.868 1.934 1.935v44.514zM5.236 51.697a1.937 1.937 0 0 1-1.934-1.934V11.01c0-1.067.868-1.935 1.934-1.935h12.689v40.687c0 .442.055.882.166 1.309l.16.625H5.237zM53.762 5.773H41.074v-.5c0-2.912-2.35-5.261-5.237-5.261H23.162a5.243 5.243 0 0 0-5.237 5.237v.5l-.5.024H5.235A5.243 5.243 0 0 0 0 11.01v38.752A5.242 5.242 0 0 0 5.236 55h48.526A5.243 5.243 0 0 0 59 49.763V11.01a5.244 5.244 0 0 0-5.238-5.238z" mask="url(#b)"/>
        </g>
        <path fill="#097C86" d="M50.391 18.585H46.38c-.91 0-1.65.74-1.65 1.65 0 .912.74 1.653 1.65 1.653h4.012c.91 0 1.651-.741 1.651-1.652 0-.91-.74-1.651-1.65-1.651M50.391 26.223H46.38c-.91 0-1.65.741-1.65 1.651 0 .911.74 1.652 1.65 1.652h4.012c.91 0 1.651-.74 1.651-1.652 0-.91-.74-1.65-1.65-1.65"/>
    </g>
</svg>
