<svg xmlns="http://www.w3.org/2000/svg" width="57" height="57" viewBox="0 0 57 57">
    <g fill="none" fill-rule="evenodd">
        <path fill="#097C86" d="M30.103 30.105a12.492 12.492 0 0 1-8.889 3.69c-3.353 0-6.51-1.31-8.889-3.69-4.902-4.9-4.902-12.876 0-17.778a12.49 12.49 0 0 1 8.888-3.689c3.355 0 6.511 1.31 8.89 3.69 4.901 4.901 4.901 12.876 0 17.777m-8.89-24.282a15.295 15.295 0 0 0-10.889 4.503c-6.004 6.005-6.004 15.775 0 21.78a15.296 15.296 0 0 0 10.89 4.503c4.118 0 7.986-1.6 10.89-4.504 6.004-6.004 6.004-15.774 0-21.779a15.297 15.297 0 0 0-10.89-4.503"/>
        <path fill="#002F43" d="M34.222 34.224a18.28 18.28 0 0 1-13.008 5.395 18.28 18.28 0 0 1-13.007-5.395c-7.172-7.172-7.172-18.842 0-26.014a18.28 18.28 0 0 1 13.007-5.396A18.28 18.28 0 0 1 34.222 8.21c7.172 7.171 7.172 18.841 0 26.014m18.933 18.93c-.284.282-.655.44-1.045.44-.391 0-.762-.157-1.045-.44l-9.214-9.215 2.085-2.09 9.219 9.22c.283.282.439.653.439 1.042 0 .39-.156.76-.44 1.043m2-4.082L44.937 38.853a1.405 1.405 0 0 0-.77-.395v-.023h-.253a1.408 1.408 0 0 0-.977.414l-.865.867-4.73-4.73c7.12-8.33 6.759-20.9-1.118-28.777-4.004-4.005-9.334-6.21-15.008-6.21C15.54 0 10.21 2.205 6.205 6.21c-8.273 8.274-8.273 21.74 0 30.015 4.005 4.004 9.335 6.209 15.009 6.209 5.282 0 10.25-1.932 14.145-5.425l4.713 4.709-1.222 1.223a1.418 1.418 0 0 0 0 2l10.214 10.215c.726.725 1.665 1.11 2.715 1.11.829 0 1.67-.24 2.436-.697h.004c.313-.014.612-.133.852-.335a.932.932 0 0 0 .084-.073 4.311 4.311 0 0 0 0-6.087"/>
        <path fill="#097C86" d="M21.25 11.642h-.042c-5.274 0-9.57 4.294-9.57 9.573a1.415 1.415 0 0 0 1.394 1.43c.789 0 1.424-.625 1.435-1.395 0-3.755 3.027-6.778 6.747-6.778.786 0 1.42-.627 1.432-1.396a1.418 1.418 0 0 0-1.395-1.434"/>
    </g>
</svg>
