<?xml version="1.0" encoding="UTF-8"?>
<svg width="51px" height="62px" viewBox="0 0 51 62" version="1.1" xmlns="http://www.w3.org/2000/svg" xmlns:xlink="http://www.w3.org/1999/xlink">
    <!-- Generator: Sketch 51 (57462) - http://www.bohemiancoding.com/sketch -->
    <title>icons / service / security</title>
    <desc>Created with Sketch.</desc>
    <defs>
        <polygon id="path-1" points="0.0004 0.6341 51.014 0.6341 51.014 63 0.0004 63"></polygon>
    </defs>
    <g id="icons-/-service-/-security" stroke="none" stroke-width="1" fill="none" fill-rule="evenodd">
        <g id="Group-6" transform="translate(0.000000, -1.000000)">
            <g id="Group-3" transform="translate(0.000000, 0.365700)">
                <mask id="mask-2" fill="white">
                    <use xlink:href="#path-1"></use>
                </mask>
                <g id="Clip-2"></g>
                <path d="M47.5254,12.0591 L47.5804,12.3091 L47.5804,35.7111 C47.5804,48.0121 27.8654,58.0491 25.6174,59.1531 L25.5074,59.2071 L25.3974,59.1531 C23.1504,58.0541 3.4374,48.0571 3.4374,35.7111 L3.4374,12.0591 L3.7424,12.0591 C8.6294,12.0591 17.9354,11.1911 25.3554,5.3811 L25.5094,5.2601 L25.6634,5.3811 C33.0834,11.1911 42.3884,12.0591 47.2754,12.0591 L47.5254,12.0591 Z M25.5074,0.6341 C18.7434,7.5781 8.9844,8.6211 3.7404,8.6211 C1.9114,8.6211 0.5604,8.4951 0.0004,8.4321 L0.0004,35.7111 C0.0004,43.9981 6.9494,50.9831 12.7794,55.3841 C18.6874,59.8431 24.6644,62.6181 25.5074,63.0001 C26.3504,62.6181 32.3344,59.8391 38.2424,55.3781 C44.0684,50.9791 51.0144,43.9961 51.0144,35.7111 L51.0144,8.4321 C50.4534,8.4951 49.1004,8.6211 47.2714,8.6211 C42.0284,8.6211 32.2704,7.5781 25.5074,0.6341 Z" id="Fill-1" fill="#002F43" mask="url(#mask-2)"></path>
            </g>
            <path d="M39.7026,19.5322 L39.7026,34.7842 C39.7026,42.3502 27.8296,48.6952 25.5066,49.8652 C23.4176,48.8242 11.3146,42.4552 11.3146,34.7842 L11.3146,19.5322 C14.6756,19.4912 20.6366,18.8272 25.5086,15.1382 C30.3816,18.8272 36.3426,19.4912 39.7026,19.5322 Z M42.4836,16.0142 C42.1566,16.0522 41.2646,16.1382 40.0456,16.1382 C36.6436,16.1382 30.2826,15.4662 25.9016,10.9692 L25.5076,10.5642 L25.1136,10.9692 C20.7316,15.4662 14.3696,16.1382 10.9676,16.1382 C9.7496,16.1382 8.8576,16.0522 8.5306,16.0142 L7.9186,15.9452 L7.9186,34.7842 C7.9186,40.5462 12.6796,45.3492 16.6736,48.3642 C20.7056,51.4082 24.8246,53.3072 25.2806,53.5142 L25.5076,53.6172 L25.7346,53.5142 C26.4816,53.1752 30.4076,51.3342 34.3466,48.3612 C38.3376,45.3462 43.0956,40.5442 43.0956,34.7842 L43.0956,15.9452 L42.4836,16.0142 Z" id="Fill-4" fill="#097C86"></path>
        </g>
    </g>
</svg>