<svg xmlns="http://www.w3.org/2000/svg" xmlns:xlink="http://www.w3.org/1999/xlink" width="60" height="50" viewBox="0 0 60 50">
    <defs>
        <path id="a" d="M0 .573h60V50H0z"/>
    </defs>
    <g fill="none" fill-rule="evenodd">
        <path fill="#097C86" d="M43.485 18.436H16.418a1.484 1.484 0 0 0 0 2.97h27.067a1.486 1.486 0 0 0 0-2.97M43.485 11.308H16.418a1.483 1.483 0 0 0 0 2.968h27.067a1.484 1.484 0 1 0 0-2.968M35.258 25.566h-18.84a1.484 1.484 0 0 0 0 2.968h18.84a1.484 1.484 0 0 0 0-2.968"/>
        <g transform="translate(0 -.573)">
            <mask id="b" fill="#fff">
                <use xlink:href="#a"/>
            </mask>
            <path fill="#002F43" d="M2.96 6.256a2.72 2.72 0 0 1 2.715-2.713h48.643a2.716 2.716 0 0 1 2.715 2.713v28.476a2.718 2.718 0 0 1-2.715 2.716h-35.26c-.097 0-.197.01-.292.029-.035.005-.072.02-.107.03-.057.018-.114.03-.172.053-.044.019-.08.04-.12.064-.046.025-.09.047-.134.074a1.434 1.434 0 0 0-.202.164c-.007.008-.016.013-.024.02l-7.053 7.055v-6.005c0-.82-.663-1.484-1.483-1.484H5.675a2.72 2.72 0 0 1-2.715-2.716V6.256zm-2.96 0v28.476a5.688 5.688 0 0 0 5.68 5.683h2.313v8.102A1.486 1.486 0 0 0 9.476 50c.384 0 .765-.148 1.047-.433l9.148-9.15h29.01l2.957-.005h2.677a5.69 5.69 0 0 0 5.682-5.682V16.154L60 13.188V6.256A5.69 5.69 0 0 0 54.317.573H5.675A5.68 5.68 0 0 0 0 6.256z" mask="url(#b)"/>
        </g>
    </g>
</svg>
