<?xml version="1.0" encoding="UTF-8"?>
<svg width="73px" height="58px" viewBox="0 0 73 58" version="1.1" xmlns="http://www.w3.org/2000/svg" xmlns:xlink="http://www.w3.org/1999/xlink">
    <!-- Generator: Sketch 51 (57462) - http://www.bohemiancoding.com/sketch -->
    <title>icons / service / support</title>
    <desc>Created with Sketch.</desc>
    <defs>
        <polygon id="path-1" points="0.4264 0.23 51.8054 0.23 51.8054 25.1793 0.4264 25.1793"></polygon>
    </defs>
    <g id="icons-/-service-/-support" stroke="none" stroke-width="1" fill="none" fill-rule="evenodd">
        <g id="Group-3" transform="translate(10.000000, -0.229600)">
            <mask id="mask-2" fill="white">
                <use xlink:href="#path-1"></use>
            </mask>
            <g id="Clip-2"></g>
            <path d="M51.8054,25.1793 L48.7644,25.1793 C48.7644,13.0983 39.0034,3.2703 27.0064,3.2703 L25.2274,3.2703 C13.2284,3.2703 3.4674,13.0983 3.4674,25.1793 L0.4264,25.1793 C0.4264,11.4213 11.5524,0.2293 25.2274,0.2293 L27.0064,0.2293 C40.6814,0.2293 51.8054,11.4213 51.8054,25.1793" id="Fill-1" fill="#002F43" mask="url(#mask-2)"></path>
        </g>
        <path d="M60.6833,27.1362 C58.9643,27.1362 57.6133,28.4872 57.6133,30.1482 L57.6133,39.3272 C57.6133,40.9882 58.9643,42.3392 60.6253,42.3392 L60.6833,42.3392 C62.3433,42.3392 63.6943,40.9882 63.6943,39.3272 L63.6943,30.1482 C63.6943,28.4872 62.3433,27.1362 60.6833,27.1362 M60.6833,45.3792 L60.6253,45.3792 C57.2873,45.3792 54.5723,42.6652 54.5723,39.3272 L54.5723,30.1482 C54.5723,26.8102 57.2873,24.0952 60.6253,24.0952 C64.0203,24.0952 66.7343,26.8102 66.7343,30.1482 L66.7343,39.3272 C66.7343,42.6652 64.0203,45.3792 60.6833,45.3792" id="Fill-4" fill="#097C86"></path>
        <path d="M11.9768,27.1362 C10.2578,27.1362 8.9068,28.4872 8.9068,30.1482 L8.9068,39.3272 C8.9068,40.9882 10.2578,42.3392 11.9188,42.3392 L11.9768,42.3392 C13.6368,42.3392 14.9878,40.9882 14.9878,39.3272 L14.9878,30.1482 C14.9878,28.4872 13.6368,27.1362 11.9768,27.1362 M11.9768,45.3792 L11.9188,45.3792 C8.5808,45.3792 5.8658,42.6652 5.8658,39.3272 L5.8658,30.1482 C5.8658,26.8102 8.5808,24.0952 11.9188,24.0952 C15.3138,24.0952 18.0278,26.8102 18.0278,30.1482 L18.0278,39.3272 C18.0278,42.6652 15.3138,45.3792 11.9768,45.3792" id="Fill-6" fill="#097C86"></path>
        <path d="M6.0813,31.9257 C4.4053,31.9257 3.0403,33.2897 3.0403,34.9667 C3.0403,36.6427 4.4053,38.0067 6.0813,38.0067 L6.0813,31.9257 Z M9.1223,41.0477 L6.0813,41.0477 C2.7273,41.0477 0.0003,38.3197 0.0003,34.9667 C0.0003,31.6137 2.7273,28.8847 6.0813,28.8847 L9.1223,28.8847 L9.1223,41.0477 Z" id="Fill-8" fill="#097C86"></path>
        <path d="M66.8918,31.9257 L66.8918,38.0067 C68.5678,38.0067 69.9328,36.6427 69.9328,34.9667 C69.9328,33.2897 68.5678,31.9257 66.8918,31.9257 M66.8918,41.0477 L63.8508,41.0477 L63.8508,28.8847 L66.8918,28.8847 C70.2458,28.8847 72.9728,31.6137 72.9728,34.9667 C72.9728,38.3197 70.2458,41.0477 66.8918,41.0477" id="Fill-10" fill="#097C86"></path>
        <path d="M51.4592,54.7299 L45.6082,54.7299 L45.6082,51.6889 L51.4592,51.6889 C55.7782,51.6889 59.2912,48.1769 59.2912,43.8579 L62.3312,43.8579 C62.3312,49.8529 57.4542,54.7299 51.4592,54.7299" id="Fill-12" fill="#002F43"></path>
        <path d="M38.7922,51.6894 C37.9532,51.6894 37.2712,52.3714 37.2712,53.2094 C37.2712,54.0474 37.9532,54.7304 38.7922,54.7304 L44.0882,54.7304 C44.9272,54.7304 45.6082,54.0474 45.6082,53.2094 C45.6082,52.3714 44.9272,51.6894 44.0882,51.6894 L38.7922,51.6894 Z M44.0882,57.7704 L38.7922,57.7704 C36.2772,57.7704 34.2312,55.7244 34.2312,53.2094 C34.2312,50.6944 36.2772,48.6484 38.7922,48.6484 L44.0882,48.6484 C46.6032,48.6484 48.6482,50.6944 48.6482,53.2094 C48.6482,55.7244 46.6032,57.7704 44.0882,57.7704 Z" id="Fill-14" fill="#097C86"></path>
    </g>
</svg>