<?xml version="1.0" encoding="UTF-8"?>
<svg width="69px" height="55px" viewBox="0 0 69 55" version="1.1" xmlns="http://www.w3.org/2000/svg" xmlns:xlink="http://www.w3.org/1999/xlink">
    <!-- Generator: Sketch 51 (57462) - http://www.bohemiancoding.com/sketch -->
    <title>icons / service / training</title>
    <desc>Created with Sketch.</desc>
    <defs>
        <polygon id="path-1" points="0.0001 0.282 68.3401 0.282 68.3401 46.1594 0.0001 46.1594"></polygon>
    </defs>
    <g id="icons-/-service-/-training" stroke="none" stroke-width="1" fill="none" fill-rule="evenodd">
        <g id="Group-18">
            <polygon id="Fill-1" fill="#002F43" points="31.9185 1.001 31.9795 1.001 31.9795 1.011 42.3455 1.011 42.3455 1.001 42.4175 1.001"></polygon>
            <g id="Group-17" transform="translate(0.000000, 0.718400)">
                <g id="Group-4">
                    <mask id="mask-2" fill="white">
                        <use xlink:href="#path-1"></use>
                    </mask>
                    <g id="Clip-3"></g>
                    <path d="M28.8901,0.2834 L28.8341,0.2834 L28.8341,0.2934 L2.0951,0.2934 C0.9381,0.2934 0.0001,1.2314 0.0001,2.3884 L0.0001,44.0644 C0.0001,45.2214 0.9381,46.1594 2.0951,46.1594 L66.2451,46.1594 C67.4021,46.1594 68.3401,45.2214 68.3401,44.0644 L68.3401,15.1994 C68.3401,14.3294 67.6351,13.6244 66.7651,13.6244 C65.8951,13.6244 65.1901,14.3294 65.1901,15.1994 L65.1901,43.0134 L3.1501,43.0134 L3.1501,3.4414 L65.1901,3.4414 L65.1901,4.0624 C65.1901,4.9324 65.8951,5.6374 66.7651,5.6374 C67.6351,5.6374 68.3401,4.9324 68.3401,4.0624 L68.3401,2.3874 C68.3401,1.2294 67.4021,0.2914 66.2451,0.2914 L45.4951,0.2914 L45.4951,0.2814 L45.4451,0.2814" id="Fill-2" fill="#002F43" mask="url(#mask-2)"></path>
                </g>
                <path d="M66.8799,7.1242 C67.7049,7.1242 68.3739,7.7932 68.3739,8.6182 C68.3739,9.4432 67.7049,10.1122 66.8799,10.1122 C66.0549,10.1122 65.3859,9.4432 65.3859,8.6182 C65.3859,7.7932 66.0549,7.1242 66.8799,7.1242" id="Fill-5" fill="#002F43"></path>
                <path d="M31.2431,25.676 L31.2031,25.676 C30.3771,25.676 29.7011,26.34 29.6891,27.168 C29.6771,28.005 30.3451,28.693 31.1811,28.705 L31.2441,28.705 C32.8061,28.705 34.1941,27.851 34.9661,26.408 C35.8021,24.846 35.7291,22.945 34.7791,21.563 C32.4381,18.157 26.9871,19.273 24.9361,19.693 C19.6051,20.782 16.7061,20.48 16.3181,18.793 C16.2291,18.409 16.4161,17.875 16.8041,17.399 C17.2681,16.829 17.9421,16.438 18.4531,16.438 L18.5111,16.438 C19.3311,16.438 20.0061,15.781 20.0251,14.957 C20.0441,14.121 19.3821,13.428 18.5461,13.408 C17.1051,13.356 15.5281,14.17 14.4571,15.485 C13.4631,16.705 13.0651,18.159 13.3671,19.472 C14.6141,24.895 22.5551,23.272 25.5441,22.659 C29.2171,21.907 31.4861,22.116 32.2851,23.279 C32.5901,23.723 32.5961,24.422 32.2971,24.979 C32.1241,25.297 31.8041,25.676 31.2431,25.676" id="Fill-7" fill="#097C86"></path>
                <path d="M48.9961,30.8098 C53.6611,29.8948 57.1031,25.5258 56.5421,20.4858 C56.0611,16.1688 52.5731,12.6798 48.2571,12.1988 C42.5801,11.5648 37.7551,16.0098 37.7551,21.5618 C37.7551,23.5088 38.3491,25.3218 39.3661,26.8268 C39.8991,27.6148 41.0211,27.7188 41.6931,27.0458 C42.2121,26.5278 42.2701,25.7208 41.8621,25.1118 C41.0391,23.8818 40.6301,22.3548 40.8371,20.7288 C41.2031,17.8478 43.5511,15.5368 46.4361,15.2088 C50.2931,14.7728 53.5741,17.7898 53.5741,21.5618 C53.5741,24.6568 51.3641,27.2448 48.4391,27.8308 C47.7161,27.9768 47.1791,28.5838 47.1791,29.3228 C47.1781,30.2818 48.0561,30.9948 48.9961,30.8098" id="Fill-9" fill="#097C86"></path>
                <path d="M33.5801,43.9846 L33.5801,50.8496 C33.5801,51.7196 34.2851,52.4246 35.1551,52.4246 C36.0251,52.4246 36.7301,51.7196 36.7301,50.8496 L36.7301,44.0376" id="Fill-11" fill="#002F43"></path>
                <path d="M41.519,50.8498 L35.664,50.8498 L34.706,50.8498 L28.798,50.8498 C27.929,50.8498 27.224,51.5548 27.224,52.4248 C27.224,53.2948 27.929,53.9998 28.798,53.9998 L34.654,53.9998 L35.611,53.9998 L41.519,53.9998 C42.389,53.9998 43.094,53.2948 43.094,52.4248 C43.094,51.5548 42.389,50.8498 41.519,50.8498" id="Fill-13" fill="#002F43"></path>
                <path d="M66.2954,36.8371 L8.4404,36.8371 L7.4824,36.8371 L1.5754,36.8371 C0.7054,36.8371 0.0004,37.5421 0.0004,38.4121 C0.0004,39.2811 0.7054,39.9861 1.5754,39.9861 L7.4304,39.9861 L8.3884,39.9861 L66.2954,39.9861 C67.1654,39.9861 67.8704,39.2811 67.8704,38.4121 C67.8704,37.5421 67.1654,36.8371 66.2954,36.8371" id="Fill-15" fill="#002F43"></path>
            </g>
        </g>
    </g>
</svg>