<?xml version="1.0" encoding="UTF-8"?>
<svg width="67px" height="56px" viewBox="0 0 67 56" version="1.1" xmlns="http://www.w3.org/2000/svg" xmlns:xlink="http://www.w3.org/1999/xlink">
    <!-- Generator: Sketch 51 (57462) - http://www.bohemiancoding.com/sketch -->
    <title>icons / service / ux</title>
    <desc>Created with Sketch.</desc>
    <defs>
        <polygon id="path-1" points="0.3924 0.0861 29.029717 0.0861 29.029717 56 0.3924 56"></polygon>
        <polygon id="path-3" points="0.00014347995 0.0862 41.1732 0.0862 41.1732 56 0.00014347995 56"></polygon>
        <polygon id="path-5" points="0 55.9141 67.03 55.9141 67.03 0.0001 0 0.0001"></polygon>
    </defs>
    <g id="icons-/-service-/-ux" stroke="none" stroke-width="1" fill="none" fill-rule="evenodd">
        <g id="Group-3" transform="translate(38.000000, -0.085900)">
            <mask id="mask-2" fill="white">
                <use xlink:href="#path-1"></use>
            </mask>
            <g id="Clip-2"></g>
            <path d="M28.8824,30.7451 L24.9744,22.7851 L24.9744,10.3521 C24.9744,4.6911 20.3684,0.0861 14.7074,0.0861 L0.3924,0.0861 L0.3924,2.9291 L14.7084,2.9291 C18.8024,2.9291 22.1324,6.2591 22.1324,10.3521 L22.1324,23.1151 C22.1324,23.3301 22.1824,23.5461 22.2784,23.7411 L25.3264,29.9501 L23.5534,29.9501 C22.7704,29.9501 22.1324,30.5881 22.1324,31.3711 L22.1324,34.3081 C22.1324,38.4011 18.8024,41.7311 14.7084,41.7311 L8.6274,41.7311 C7.8434,41.7311 7.2064,42.3691 7.2064,43.1531 L7.2064,53.1571 L4.5704,53.1571 L4.5704,56.0001 L8.6274,56.0001 C9.4114,56.0001 10.0494,55.3621 10.0494,54.5781 L10.0494,44.5751 L14.7084,44.5751 C20.3694,44.5751 24.9754,39.9691 24.9754,34.3081 L24.9754,32.7941 L27.6074,32.7941 C28.1004,32.7941 28.5504,32.5441 28.8144,32.1231 C29.0754,31.7031 29.1004,31.1871 28.8824,30.7451" id="Fill-1" fill="#002F43" mask="url(#mask-2)"></path>
        </g>
        <g id="Group-6" transform="translate(0.000000, -0.085900)">
            <mask id="mask-4" fill="white">
                <use xlink:href="#path-3"></use>
            </mask>
            <g id="Clip-5"></g>
            <path d="M38.3302,53.1572 L21.8242,53.1572 L21.8242,43.1532 C21.8242,42.3692 21.1862,41.7322 20.4032,41.7322 L14.3222,41.7322 C10.2282,41.7322 6.8982,38.4022 6.8982,34.3082 L6.8982,31.3722 C6.8982,30.5892 6.2602,29.9512 5.4762,29.9512 L3.7042,29.9512 L6.7532,23.7402 C6.8482,23.5462 6.8982,23.3292 6.8982,23.1152 L6.8982,10.3522 C6.8982,6.2592 10.2282,2.9282 14.3222,2.9282 L30.9062,2.9282 C35.0002,2.9282 38.3302,6.2592 38.3302,10.3522 L38.3302,11.5002 L41.1732,11.5002 L41.1732,10.3522 C41.1732,4.6912 36.5672,0.0862 30.9062,0.0862 L14.3222,0.0862 C8.6612,0.0862 4.0552,4.6912 4.0552,10.3522 L4.0552,22.7842 L0.1462,30.7462 C-0.0708,31.1902 -0.0448,31.7052 0.2162,32.1252 C0.4792,32.5442 0.9302,32.7942 1.4222,32.7942 L4.0552,32.7942 L4.0552,34.3082 C4.0552,39.9692 8.6612,44.5742 14.3222,44.5742 L18.9812,44.5742 L18.9812,54.5782 C18.9812,55.3622 19.6192,56.0002 20.4032,56.0002 L39.7512,56.0002 C40.5352,56.0002 41.1732,55.3622 41.1732,54.5782 L41.1732,46.2662 L38.3302,46.2662 L38.3302,53.1572 Z" id="Fill-4" fill="#002F43" mask="url(#mask-4)"></path>
        </g>
        <mask id="mask-6" fill="white">
            <use xlink:href="#path-5"></use>
        </mask>
        <g id="Clip-8"></g>
        <path d="M34.493,39.0321 L40.791,39.0321 L40.791,37.3971 L34.493,37.3971 L34.493,39.0321 Z M33.796,29.2881 C31.483,27.9221 30.047,25.4141 30.047,22.7421 C30.047,18.5471 33.46,15.1341 37.655,15.1341 C41.85,15.1341 45.263,18.5471 45.263,22.7421 C45.263,25.4131 43.826,27.9221 41.514,29.2891 C41.084,29.5441 40.816,30.0131 40.816,30.5131 L40.816,34.5551 L34.493,34.5551 L34.493,30.5121 C34.493,30.0121 34.226,29.5431 33.796,29.2881 Z M37.062,42.6791 L38.222,42.6791 L38.222,41.8751 L37.062,41.8751 L37.062,42.6791 Z M43.633,40.4531 L43.658,31.2841 C46.447,29.3211 48.105,26.1471 48.105,22.7411 C48.105,16.9781 43.417,12.2901 37.654,12.2901 C31.891,12.2901 27.203,16.9781 27.203,22.7411 C27.203,26.1481 28.86,29.3211 31.649,31.2831 L31.649,40.4531 C31.649,41.2371 32.287,41.8741 33.07,41.8741 L34.219,41.8741 L34.219,44.1001 C34.219,44.8831 34.857,45.5211 35.64,45.5211 L39.643,45.5211 C40.426,45.5211 41.064,44.8831 41.064,44.1001 L41.064,41.8741 L42.212,41.8741 C42.995,41.8741 43.633,41.2371 43.633,40.4531 Z" id="Fill-7" fill="#097C86" mask="url(#mask-6)"></path>
    </g>
</svg>