<svg xmlns="http://www.w3.org/2000/svg" xmlns:xlink="http://www.w3.org/1999/xlink" width="57" height="57" viewBox="0 0 57 57">
    <defs>
        <path id="a" d="M0 .737h55.263V56H0z"/>
    </defs>
    <g fill="none" fill-rule="evenodd">
        <path fill="#097C86" d="M18.685 13.105a2.631 2.631 0 1 1 0 5.263 2.631 2.631 0 0 1 0-5.262"/>
        <path fill="#002F43" d="M13.42 32.053a2.632 2.632 0 1 1 .001 5.264 2.632 2.632 0 0 1 0-5.264M22.895 37.58a2.632 2.632 0 1 1 0 5.263 2.632 2.632 0 0 1 0-5.264"/>
        <path fill="#097C86" d="M47.895 37.316a2.632 2.632 0 1 1 0 5.264 2.632 2.632 0 0 1 0-5.264M38.42 42.842a2.632 2.632 0 1 1 .001 5.264 2.632 2.632 0 0 1 0-5.264"/>
        <path fill="#002F43" d="M43.158 21.263a2.631 2.631 0 1 1 0 5.262 2.631 2.631 0 0 1 0-5.262"/>
        <path fill="#097C86" d="M38.026 47.184l-20-30L1.58 20.868l-.658-2.5 18.29-4.079 19.604 29.474 8.29-4.869 7.236-6.447 1.711 1.842-7.5 6.842z"/>
        <path fill="#002F43" d="M2.106 45.21l-1.58-2.105 12.764-10 9.473 5.527L42.632 22.58h12.63v2.63h-11.71L23.027 41.79l-9.605-5.526z"/>
        <g transform="translate(0 .263)">
            <mask id="b" fill="#fff">
                <use xlink:href="#a"/>
            </mask>
            <path fill="#002F43" d="M2.632 53.368V.738H0v55.21h.053V56h55.21v-2.632z" mask="url(#b)"/>
        </g>
    </g>
</svg>
