<svg xmlns="http://www.w3.org/2000/svg" xmlns:xlink="http://www.w3.org/1999/xlink" width="62" height="63" viewBox="0 0 62 63">
    <defs>
        <path id="a" d="M.467.557H24v23.55H.467z"/>
        <path id="c" d="M0 62.443h62V1H0z"/>
    </defs>
    <g fill="none" fill-rule="evenodd">
        <g transform="translate(38 .443)">
            <mask id="b" fill="#fff">
                <use xlink:href="#a"/>
            </mask>
            <path fill="#002F43" d="M3.132 12.125l8.89-8.903a.26.26 0 0 1 .417 0l8.903 8.903a.263.263 0 0 1 0 .416l-8.903 8.903a.262.262 0 0 1-.416 0l-8.911-8.903a.262.262 0 0 1 0-.416h.02zM1.32 14.353l8.89 8.903a2.822 2.822 0 0 0 3.992.047l.047-.047 8.904-8.903a2.824 2.824 0 0 0 0-4.033l-8.91-8.91a2.816 2.816 0 0 0-3.982-.056c-.02.018-.038.037-.057.056L1.32 10.313a2.817 2.817 0 0 0 0 4.04z" mask="url(#b)"/>
        </g>
        <path fill="#002F43" d="M10.817 21.036a8.257 8.257 0 1 1 8.257-8.263 8.269 8.269 0 0 1-8.257 8.263m0-19.08C4.842 1.956 0 6.799 0 12.773S4.842 23.59 10.817 23.59c5.975 0 10.817-4.844 10.817-10.818-.006-5.971-4.845-10.81-10.817-10.817"/>
        <path fill="#097C86" d="M31.235 17.95l6.184-5.177L31.235 7.6 29.59 9.566l2.311 1.927h-8.07v2.56h8.07l-2.31 1.933zM48.946 25.965v8.065l-1.926-2.31-1.966 1.644 5.172 6.19 5.172-6.19-1.958-1.644-1.933 2.31v-8.065z"/>
        <mask id="d" fill="#fff">
            <use xlink:href="#c"/>
        </mask>
        <path fill="#002F43" d="M4.116 58.302h13.371v-13.34H4.116v13.34zm-2.56 2.56h18.491v-18.46H1.556v18.46zM50.201 43.369a8.257 8.257 0 1 1-8.257 8.257 8.269 8.269 0 0 1 8.257-8.257m-10.792 8.257c0 5.973 4.844 10.817 10.817 10.817 5.975 0 10.818-4.844 10.818-10.817 0-5.975-4.843-10.818-10.818-10.818h-.025c-5.961.022-10.784 4.856-10.792 10.818" mask="url(#d)"/>
        <path fill="#097C86" d="M30.877 54.839l-2.304-1.933h8.065v-2.56h-8.065l2.304-1.927-1.645-1.965-6.183 5.172 6.183 5.178z" mask="url(#d)"/>
    </g>
</svg>
